<svg width="310" height="67" viewBox="0 0 310 67" fill="none" xmlns="http://www.w3.org/2000/svg">
<rect x="12" y="16" width="283" height="51" rx="25.5" fill="#E1DFE5"/>
<path d="M0 66.4789C11.8986 69.0029 20.9577 61.7465 24 57.8029L23.662 45.9718C20.3944 46.7606 14.1634 47.4704 12 44C12.338 58.1972 2.3662 65.2958 0 66.4789Z" fill="#E1DFE5"/>
<path d="M46.1172 40.9297V42.0078C46.1172 43.2891 45.957 44.4375 45.6367 45.4531C45.3164 46.4688 44.8555 47.332 44.2539 48.043C43.6523 48.7539 42.9297 49.2969 42.0859 49.6719C41.25 50.0469 40.3125 50.2344 39.2734 50.2344C38.2656 50.2344 37.3398 50.0469 36.4961 49.6719C35.6602 49.2969 34.9336 48.7539 34.3164 48.043C33.707 47.332 33.2344 46.4688 32.8984 45.4531C32.5625 44.4375 32.3945 43.2891 32.3945 42.0078V40.9297C32.3945 39.6484 32.5586 38.5039 32.8867 37.4961C33.2227 36.4805 33.6953 35.6172 34.3047 34.9062C34.9141 34.1875 35.6367 33.6406 36.4727 33.2656C37.3164 32.8906 38.2422 32.7031 39.25 32.7031C40.2891 32.7031 41.2266 32.8906 42.0625 33.2656C42.9062 33.6406 43.6289 34.1875 44.2305 34.9062C44.8398 35.6172 45.3047 36.4805 45.625 37.4961C45.9531 38.5039 46.1172 39.6484 46.1172 40.9297ZM43.8789 42.0078V40.9062C43.8789 39.8906 43.7734 38.9922 43.5625 38.2109C43.3594 37.4297 43.0586 36.7734 42.6602 36.2422C42.2617 35.7109 41.7734 35.3086 41.1953 35.0352C40.625 34.7617 39.9766 34.625 39.25 34.625C38.5469 34.625 37.9102 34.7617 37.3398 35.0352C36.7773 35.3086 36.293 35.7109 35.8867 36.2422C35.4883 36.7734 35.1797 37.4297 34.9609 38.2109C34.7422 38.9922 34.6328 39.8906 34.6328 40.9062V42.0078C34.6328 43.0312 34.7422 43.9375 34.9609 44.7266C35.1797 45.5078 35.4922 46.168 35.8984 46.707C36.3125 47.2383 36.8008 47.6406 37.3633 47.9141C37.9336 48.1875 38.5703 48.3242 39.2734 48.3242C40.0078 48.3242 40.6602 48.1875 41.2305 47.9141C41.8008 47.6406 42.2812 47.2383 42.6719 46.707C43.0703 46.168 43.3711 45.5078 43.5742 44.7266C43.7773 43.9375 43.8789 43.0312 43.8789 42.0078ZM51.3438 40.0273V50H49.1758V37.3203H51.2266L51.3438 40.0273ZM50.8281 43.1797L49.9258 43.1445C49.9336 42.2773 50.0625 41.4766 50.3125 40.7422C50.5625 40 50.9141 39.3555 51.3672 38.8086C51.8203 38.2617 52.3594 37.8398 52.9844 37.543C53.6172 37.2383 54.3164 37.0859 55.082 37.0859C55.707 37.0859 56.2695 37.1719 56.7695 37.3438C57.2695 37.5078 57.6953 37.7734 58.0469 38.1406C58.4062 38.5078 58.6797 38.9844 58.8672 39.5703C59.0547 40.1484 59.1484 40.8555 59.1484 41.6914V50H56.9688V41.668C56.9688 41.0039 56.8711 40.4727 56.6758 40.0742C56.4805 39.668 56.1953 39.375 55.8203 39.1953C55.4453 39.0078 54.9844 38.9141 54.4375 38.9141C53.8984 38.9141 53.4062 39.0273 52.9609 39.2539C52.5234 39.4805 52.1445 39.793 51.8242 40.1914C51.5117 40.5898 51.2656 41.0469 51.0859 41.5625C50.9141 42.0703 50.8281 42.6094 50.8281 43.1797ZM64.7969 32V50H62.6172V32H64.7969ZM71.8398 48.6875L75.3672 37.3203H77.6875L72.6016 51.957C72.4844 52.2695 72.3281 52.6055 72.1328 52.9648C71.9453 53.332 71.7031 53.6797 71.4062 54.0078C71.1094 54.3359 70.75 54.6016 70.3281 54.8047C69.9141 55.0156 69.418 55.1211 68.8398 55.1211C68.668 55.1211 68.4492 55.0977 68.1836 55.0508C67.918 55.0039 67.7305 54.9648 67.6211 54.9336L67.6094 53.1758C67.6719 53.1836 67.7695 53.1914 67.9023 53.1992C68.043 53.2148 68.1406 53.2227 68.1953 53.2227C68.6875 53.2227 69.1055 53.1562 69.4492 53.0234C69.793 52.8984 70.082 52.6836 70.3164 52.3789C70.5586 52.082 70.7656 51.6719 70.9375 51.1484L71.8398 48.6875ZM69.25 37.3203L72.543 47.1641L73.1055 49.4492L71.5469 50.2461L66.8828 37.3203H69.25ZM93.0742 47.832V41.3047C93.0742 40.8047 92.9727 40.3711 92.7695 40.0039C92.5742 39.6289 92.2773 39.3398 91.8789 39.1367C91.4805 38.9336 90.9883 38.832 90.4023 38.832C89.8555 38.832 89.375 38.9258 88.9609 39.1133C88.5547 39.3008 88.2344 39.5469 88 39.8516C87.7734 40.1562 87.6602 40.4844 87.6602 40.8359H85.4922C85.4922 40.3828 85.6094 39.9336 85.8438 39.4883C86.0781 39.043 86.4141 38.6406 86.8516 38.2812C87.2969 37.9141 87.8281 37.625 88.4453 37.4141C89.0703 37.1953 89.7656 37.0859 90.5312 37.0859C91.4531 37.0859 92.2656 37.2422 92.9688 37.5547C93.6797 37.8672 94.2344 38.3398 94.6328 38.9727C95.0391 39.5977 95.2422 40.3828 95.2422 41.3281V47.2344C95.2422 47.6562 95.2773 48.1055 95.3477 48.582C95.4258 49.0586 95.5391 49.4688 95.6875 49.8125V50H93.4258C93.3164 49.75 93.2305 49.418 93.168 49.0039C93.1055 48.582 93.0742 48.1914 93.0742 47.832ZM93.4492 42.3125L93.4727 43.8359H91.2812C90.6641 43.8359 90.1133 43.8867 89.6289 43.9883C89.1445 44.082 88.7383 44.2266 88.4102 44.4219C88.082 44.6172 87.832 44.8633 87.6602 45.1602C87.4883 45.4492 87.4023 45.7891 87.4023 46.1797C87.4023 46.5781 87.4922 46.9414 87.6719 47.2695C87.8516 47.5977 88.1211 47.8594 88.4805 48.0547C88.8477 48.2422 89.2969 48.3359 89.8281 48.3359C90.4922 48.3359 91.0781 48.1953 91.5859 47.9141C92.0938 47.6328 92.4961 47.2891 92.793 46.8828C93.0977 46.4766 93.2617 46.082 93.2852 45.6992L94.2109 46.7422C94.1562 47.0703 94.0078 47.4336 93.7656 47.832C93.5234 48.2305 93.1992 48.6133 92.793 48.9805C92.3945 49.3398 91.918 49.6406 91.3633 49.8828C90.8164 50.1172 90.1992 50.2344 89.5117 50.2344C88.6523 50.2344 87.8984 50.0664 87.25 49.7305C86.6094 49.3945 86.1094 48.9453 85.75 48.3828C85.3984 47.8125 85.2227 47.1758 85.2227 46.4727C85.2227 45.793 85.3555 45.1953 85.6211 44.6797C85.8867 44.1562 86.2695 43.7227 86.7695 43.3789C87.2695 43.0273 87.8711 42.7617 88.5742 42.582C89.2773 42.4023 90.0625 42.3125 90.9297 42.3125H93.4492ZM103.961 37.3203V38.9844H97.1055V37.3203H103.961ZM99.4258 34.2383H101.594V46.8594C101.594 47.2891 101.66 47.6133 101.793 47.832C101.926 48.0508 102.098 48.1953 102.309 48.2656C102.52 48.3359 102.746 48.3711 102.988 48.3711C103.168 48.3711 103.355 48.3555 103.551 48.3242C103.754 48.2852 103.906 48.2539 104.008 48.2305L104.02 50C103.848 50.0547 103.621 50.1055 103.34 50.1523C103.066 50.207 102.734 50.2344 102.344 50.2344C101.812 50.2344 101.324 50.1289 100.879 49.918C100.434 49.707 100.078 49.3555 99.8125 48.8633C99.5547 48.3633 99.4258 47.6914 99.4258 46.8477V34.2383ZM117.766 37.3203V38.9844H110.91V37.3203H117.766ZM113.23 34.2383H115.398V46.8594C115.398 47.2891 115.465 47.6133 115.598 47.832C115.73 48.0508 115.902 48.1953 116.113 48.2656C116.324 48.3359 116.551 48.3711 116.793 48.3711C116.973 48.3711 117.16 48.3555 117.355 48.3242C117.559 48.2852 117.711 48.2539 117.812 48.2305L117.824 50C117.652 50.0547 117.426 50.1055 117.145 50.1523C116.871 50.207 116.539 50.2344 116.148 50.2344C115.617 50.2344 115.129 50.1289 114.684 49.918C114.238 49.707 113.883 49.3555 113.617 48.8633C113.359 48.3633 113.23 47.6914 113.23 46.8477V34.2383ZM122.477 32V50H120.309V32H122.477ZM121.961 43.1797L121.059 43.1445C121.066 42.2773 121.195 41.4766 121.445 40.7422C121.695 40 122.047 39.3555 122.5 38.8086C122.953 38.2617 123.492 37.8398 124.117 37.543C124.75 37.2383 125.449 37.0859 126.215 37.0859C126.84 37.0859 127.402 37.1719 127.902 37.3438C128.402 37.5078 128.828 37.7734 129.18 38.1406C129.539 38.5078 129.812 38.9844 130 39.5703C130.188 40.1484 130.281 40.8555 130.281 41.6914V50H128.102V41.668C128.102 41.0039 128.004 40.4727 127.809 40.0742C127.613 39.668 127.328 39.375 126.953 39.1953C126.578 39.0078 126.117 38.9141 125.57 38.9141C125.031 38.9141 124.539 39.0273 124.094 39.2539C123.656 39.4805 123.277 39.793 122.957 40.1914C122.645 40.5898 122.398 41.0469 122.219 41.5625C122.047 42.0703 121.961 42.6094 121.961 43.1797ZM138.789 50.2344C137.906 50.2344 137.105 50.0859 136.387 49.7891C135.676 49.4844 135.062 49.0586 134.547 48.5117C134.039 47.9648 133.648 47.3164 133.375 46.5664C133.102 45.8164 132.965 44.9961 132.965 44.1055V43.6133C132.965 42.582 133.117 41.6641 133.422 40.8594C133.727 40.0469 134.141 39.3594 134.664 38.7969C135.188 38.2344 135.781 37.8086 136.445 37.5195C137.109 37.2305 137.797 37.0859 138.508 37.0859C139.414 37.0859 140.195 37.2422 140.852 37.5547C141.516 37.8672 142.059 38.3047 142.48 38.8672C142.902 39.4219 143.215 40.0781 143.418 40.8359C143.621 41.5859 143.723 42.4062 143.723 43.2969V44.2695H134.254V42.5H141.555V42.3359C141.523 41.7734 141.406 41.2266 141.203 40.6953C141.008 40.1641 140.695 39.7266 140.266 39.3828C139.836 39.0391 139.25 38.8672 138.508 38.8672C138.016 38.8672 137.562 38.9727 137.148 39.1836C136.734 39.3867 136.379 39.6914 136.082 40.0977C135.785 40.5039 135.555 41 135.391 41.5859C135.227 42.1719 135.145 42.8477 135.145 43.6133V44.1055C135.145 44.707 135.227 45.2734 135.391 45.8047C135.562 46.3281 135.809 46.7891 136.129 47.1875C136.457 47.5859 136.852 47.8984 137.312 48.125C137.781 48.3516 138.312 48.4648 138.906 48.4648C139.672 48.4648 140.32 48.3086 140.852 47.9961C141.383 47.6836 141.848 47.2656 142.246 46.7422L143.559 47.7852C143.285 48.1992 142.938 48.5938 142.516 48.9688C142.094 49.3438 141.574 49.6484 140.957 49.8828C140.348 50.1172 139.625 50.2344 138.789 50.2344ZM158.852 34.4492L153.203 50H150.895L157.398 32.9375H158.887L158.852 34.4492ZM163.586 50L157.926 34.4492L157.891 32.9375H159.379L165.906 50H163.586ZM163.293 43.6836V45.5352H153.707V43.6836H163.293ZM170.031 39.7578V54.875H167.852V37.3203H169.844L170.031 39.7578ZM178.574 43.5547V43.8008C178.574 44.7227 178.465 45.5781 178.246 46.3672C178.027 47.1484 177.707 47.8281 177.285 48.4062C176.871 48.9844 176.359 49.4336 175.75 49.7539C175.141 50.0742 174.441 50.2344 173.652 50.2344C172.848 50.2344 172.137 50.1016 171.52 49.8359C170.902 49.5703 170.379 49.1836 169.949 48.6758C169.52 48.168 169.176 47.5586 168.918 46.8477C168.668 46.1367 168.496 45.3359 168.402 44.4453V43.1328C168.496 42.1953 168.672 41.3555 168.93 40.6133C169.188 39.8711 169.527 39.2383 169.949 38.7148C170.379 38.1836 170.898 37.7812 171.508 37.5078C172.117 37.2266 172.82 37.0859 173.617 37.0859C174.414 37.0859 175.121 37.2422 175.738 37.5547C176.355 37.8594 176.875 38.2969 177.297 38.8672C177.719 39.4375 178.035 40.1211 178.246 40.918C178.465 41.707 178.574 42.5859 178.574 43.5547ZM176.395 43.8008V43.5547C176.395 42.9219 176.328 42.3281 176.195 41.7734C176.062 41.2109 175.855 40.7188 175.574 40.2969C175.301 39.8672 174.949 39.5312 174.52 39.2891C174.09 39.0391 173.578 38.9141 172.984 38.9141C172.438 38.9141 171.961 39.0078 171.555 39.1953C171.156 39.3828 170.816 39.6367 170.535 39.957C170.254 40.2695 170.023 40.6289 169.844 41.0352C169.672 41.4336 169.543 41.8477 169.457 42.2773V45.3125C169.613 45.8594 169.832 46.375 170.113 46.8594C170.395 47.3359 170.77 47.7227 171.238 48.0195C171.707 48.3086 172.297 48.4531 173.008 48.4531C173.594 48.4531 174.098 48.332 174.52 48.0898C174.949 47.8398 175.301 47.5 175.574 47.0703C175.855 46.6406 176.062 46.1484 176.195 45.5938C176.328 45.0312 176.395 44.4336 176.395 43.8008ZM183.508 39.7578V54.875H181.328V37.3203H183.32L183.508 39.7578ZM192.051 43.5547V43.8008C192.051 44.7227 191.941 45.5781 191.723 46.3672C191.504 47.1484 191.184 47.8281 190.762 48.4062C190.348 48.9844 189.836 49.4336 189.227 49.7539C188.617 50.0742 187.918 50.2344 187.129 50.2344C186.324 50.2344 185.613 50.1016 184.996 49.8359C184.379 49.5703 183.855 49.1836 183.426 48.6758C182.996 48.168 182.652 47.5586 182.395 46.8477C182.145 46.1367 181.973 45.3359 181.879 44.4453V43.1328C181.973 42.1953 182.148 41.3555 182.406 40.6133C182.664 39.8711 183.004 39.2383 183.426 38.7148C183.855 38.1836 184.375 37.7812 184.984 37.5078C185.594 37.2266 186.297 37.0859 187.094 37.0859C187.891 37.0859 188.598 37.2422 189.215 37.5547C189.832 37.8594 190.352 38.2969 190.773 38.8672C191.195 39.4375 191.512 40.1211 191.723 40.918C191.941 41.707 192.051 42.5859 192.051 43.5547ZM189.871 43.8008V43.5547C189.871 42.9219 189.805 42.3281 189.672 41.7734C189.539 41.2109 189.332 40.7188 189.051 40.2969C188.777 39.8672 188.426 39.5312 187.996 39.2891C187.566 39.0391 187.055 38.9141 186.461 38.9141C185.914 38.9141 185.438 39.0078 185.031 39.1953C184.633 39.3828 184.293 39.6367 184.012 39.957C183.73 40.2695 183.5 40.6289 183.32 41.0352C183.148 41.4336 183.02 41.8477 182.934 42.2773V45.3125C183.09 45.8594 183.309 46.375 183.59 46.8594C183.871 47.3359 184.246 47.7227 184.715 48.0195C185.184 48.3086 185.773 48.4531 186.484 48.4531C187.07 48.4531 187.574 48.332 187.996 48.0898C188.426 47.8398 188.777 47.5 189.051 47.0703C189.332 46.6406 189.539 46.1484 189.672 45.5938C189.805 45.0312 189.871 44.4336 189.871 43.8008ZM197.172 32V50H194.992V32H197.172ZM205.914 50.2344C205.031 50.2344 204.23 50.0859 203.512 49.7891C202.801 49.4844 202.188 49.0586 201.672 48.5117C201.164 47.9648 200.773 47.3164 200.5 46.5664C200.227 45.8164 200.09 44.9961 200.09 44.1055V43.6133C200.09 42.582 200.242 41.6641 200.547 40.8594C200.852 40.0469 201.266 39.3594 201.789 38.7969C202.312 38.2344 202.906 37.8086 203.57 37.5195C204.234 37.2305 204.922 37.0859 205.633 37.0859C206.539 37.0859 207.32 37.2422 207.977 37.5547C208.641 37.8672 209.184 38.3047 209.605 38.8672C210.027 39.4219 210.34 40.0781 210.543 40.8359C210.746 41.5859 210.848 42.4062 210.848 43.2969V44.2695H201.379V42.5H208.68V42.3359C208.648 41.7734 208.531 41.2266 208.328 40.6953C208.133 40.1641 207.82 39.7266 207.391 39.3828C206.961 39.0391 206.375 38.8672 205.633 38.8672C205.141 38.8672 204.688 38.9727 204.273 39.1836C203.859 39.3867 203.504 39.6914 203.207 40.0977C202.91 40.5039 202.68 41 202.516 41.5859C202.352 42.1719 202.27 42.8477 202.27 43.6133V44.1055C202.27 44.707 202.352 45.2734 202.516 45.8047C202.688 46.3281 202.934 46.7891 203.254 47.1875C203.582 47.5859 203.977 47.8984 204.438 48.125C204.906 48.3516 205.438 48.4648 206.031 48.4648C206.797 48.4648 207.445 48.3086 207.977 47.9961C208.508 47.6836 208.973 47.2656 209.371 46.7422L210.684 47.7852C210.41 48.1992 210.062 48.5938 209.641 48.9688C209.219 49.3438 208.699 49.6484 208.082 49.8828C207.473 50.1172 206.75 50.2344 205.914 50.2344ZM228.754 45.6875C228.754 45.2891 228.691 44.9375 228.566 44.6328C228.449 44.3203 228.238 44.0391 227.934 43.7891C227.637 43.5391 227.223 43.3008 226.691 43.0742C226.168 42.8477 225.504 42.6172 224.699 42.3828C223.855 42.1328 223.094 41.8555 222.414 41.5508C221.734 41.2383 221.152 40.8828 220.668 40.4844C220.184 40.0859 219.812 39.6289 219.555 39.1133C219.297 38.5977 219.168 38.0078 219.168 37.3438C219.168 36.6797 219.305 36.0664 219.578 35.5039C219.852 34.9414 220.242 34.4531 220.75 34.0391C221.266 33.6172 221.879 33.2891 222.59 33.0547C223.301 32.8203 224.094 32.7031 224.969 32.7031C226.25 32.7031 227.336 32.9492 228.227 33.4414C229.125 33.9258 229.809 34.5625 230.277 35.3516C230.746 36.1328 230.98 36.9688 230.98 37.8594H228.73C228.73 37.2188 228.594 36.6523 228.32 36.1602C228.047 35.6602 227.633 35.2695 227.078 34.9883C226.523 34.6992 225.82 34.5547 224.969 34.5547C224.164 34.5547 223.5 34.6758 222.977 34.918C222.453 35.1602 222.062 35.4883 221.805 35.9023C221.555 36.3164 221.43 36.7891 221.43 37.3203C221.43 37.6797 221.504 38.0078 221.652 38.3047C221.809 38.5938 222.047 38.8633 222.367 39.1133C222.695 39.3633 223.109 39.5938 223.609 39.8047C224.117 40.0156 224.723 40.2188 225.426 40.4141C226.395 40.6875 227.23 40.9922 227.934 41.3281C228.637 41.6641 229.215 42.043 229.668 42.4648C230.129 42.8789 230.469 43.3516 230.688 43.8828C230.914 44.4062 231.027 45 231.027 45.6641C231.027 46.3594 230.887 46.9883 230.605 47.5508C230.324 48.1133 229.922 48.5938 229.398 48.9922C228.875 49.3906 228.246 49.6992 227.512 49.918C226.785 50.1289 225.973 50.2344 225.074 50.2344C224.285 50.2344 223.508 50.125 222.742 49.9062C221.984 49.6875 221.293 49.3594 220.668 48.9219C220.051 48.4844 219.555 47.9453 219.18 47.3047C218.812 46.6562 218.629 45.9062 218.629 45.0547H220.879C220.879 45.6406 220.992 46.1445 221.219 46.5664C221.445 46.9805 221.754 47.3242 222.145 47.5977C222.543 47.8711 222.992 48.0742 223.492 48.207C224 48.332 224.527 48.3945 225.074 48.3945C225.863 48.3945 226.531 48.2852 227.078 48.0664C227.625 47.8477 228.039 47.5352 228.32 47.1289C228.609 46.7227 228.754 46.2422 228.754 45.6875ZM238.891 37.3203V38.9844H232.035V37.3203H238.891ZM234.355 34.2383H236.523V46.8594C236.523 47.2891 236.59 47.6133 236.723 47.832C236.855 48.0508 237.027 48.1953 237.238 48.2656C237.449 48.3359 237.676 48.3711 237.918 48.3711C238.098 48.3711 238.285 48.3555 238.48 48.3242C238.684 48.2852 238.836 48.2539 238.938 48.2305L238.949 50C238.777 50.0547 238.551 50.1055 238.27 50.1523C237.996 50.207 237.664 50.2344 237.273 50.2344C236.742 50.2344 236.254 50.1289 235.809 49.918C235.363 49.707 235.008 49.3555 234.742 48.8633C234.484 48.3633 234.355 47.6914 234.355 46.8477V34.2383ZM240.625 43.8008V43.5312C240.625 42.6172 240.758 41.7695 241.023 40.9883C241.289 40.1992 241.672 39.5156 242.172 38.9375C242.672 38.3516 243.277 37.8984 243.988 37.5781C244.699 37.25 245.496 37.0859 246.379 37.0859C247.27 37.0859 248.07 37.25 248.781 37.5781C249.5 37.8984 250.109 38.3516 250.609 38.9375C251.117 39.5156 251.504 40.1992 251.77 40.9883C252.035 41.7695 252.168 42.6172 252.168 43.5312V43.8008C252.168 44.7148 252.035 45.5625 251.77 46.3438C251.504 47.125 251.117 47.8086 250.609 48.3945C250.109 48.9727 249.504 49.4258 248.793 49.7539C248.09 50.0742 247.293 50.2344 246.402 50.2344C245.512 50.2344 244.711 50.0742 244 49.7539C243.289 49.4258 242.68 48.9727 242.172 48.3945C241.672 47.8086 241.289 47.125 241.023 46.3438C240.758 45.5625 240.625 44.7148 240.625 43.8008ZM242.793 43.5312V43.8008C242.793 44.4336 242.867 45.0312 243.016 45.5938C243.164 46.1484 243.387 46.6406 243.684 47.0703C243.988 47.5 244.367 47.8398 244.82 48.0898C245.273 48.332 245.801 48.4531 246.402 48.4531C246.996 48.4531 247.516 48.332 247.961 48.0898C248.414 47.8398 248.789 47.5 249.086 47.0703C249.383 46.6406 249.605 46.1484 249.754 45.5938C249.91 45.0312 249.988 44.4336 249.988 43.8008V43.5312C249.988 42.9062 249.91 42.3164 249.754 41.7617C249.605 41.1992 249.379 40.7031 249.074 40.2734C248.777 39.8359 248.402 39.4922 247.949 39.2422C247.504 38.9922 246.98 38.8672 246.379 38.8672C245.785 38.8672 245.262 38.9922 244.809 39.2422C244.363 39.4922 243.988 39.8359 243.684 40.2734C243.387 40.7031 243.164 41.1992 243.016 41.7617C242.867 42.3164 242.793 42.9062 242.793 43.5312ZM257.055 39.3125V50H254.887V37.3203H256.996L257.055 39.3125ZM261.016 37.25L261.004 39.2656C260.824 39.2266 260.652 39.2031 260.488 39.1953C260.332 39.1797 260.152 39.1719 259.949 39.1719C259.449 39.1719 259.008 39.25 258.625 39.4062C258.242 39.5625 257.918 39.7812 257.652 40.0625C257.387 40.3438 257.176 40.6797 257.02 41.0703C256.871 41.4531 256.773 41.875 256.727 42.3359L256.117 42.6875C256.117 41.9219 256.191 41.2031 256.34 40.5312C256.496 39.8594 256.734 39.2656 257.055 38.75C257.375 38.2266 257.781 37.8203 258.273 37.5312C258.773 37.2344 259.367 37.0859 260.055 37.0859C260.211 37.0859 260.391 37.1055 260.594 37.1445C260.797 37.1758 260.938 37.2109 261.016 37.25ZM268.047 50.2344C267.164 50.2344 266.363 50.0859 265.645 49.7891C264.934 49.4844 264.32 49.0586 263.805 48.5117C263.297 47.9648 262.906 47.3164 262.633 46.5664C262.359 45.8164 262.223 44.9961 262.223 44.1055V43.6133C262.223 42.582 262.375 41.6641 262.68 40.8594C262.984 40.0469 263.398 39.3594 263.922 38.7969C264.445 38.2344 265.039 37.8086 265.703 37.5195C266.367 37.2305 267.055 37.0859 267.766 37.0859C268.672 37.0859 269.453 37.2422 270.109 37.5547C270.773 37.8672 271.316 38.3047 271.738 38.8672C272.16 39.4219 272.473 40.0781 272.676 40.8359C272.879 41.5859 272.98 42.4062 272.98 43.2969V44.2695H263.512V42.5H270.812V42.3359C270.781 41.7734 270.664 41.2266 270.461 40.6953C270.266 40.1641 269.953 39.7266 269.523 39.3828C269.094 39.0391 268.508 38.8672 267.766 38.8672C267.273 38.8672 266.82 38.9727 266.406 39.1836C265.992 39.3867 265.637 39.6914 265.34 40.0977C265.043 40.5039 264.812 41 264.648 41.5859C264.484 42.1719 264.402 42.8477 264.402 43.6133V44.1055C264.402 44.707 264.484 45.2734 264.648 45.8047C264.82 46.3281 265.066 46.7891 265.387 47.1875C265.715 47.5859 266.109 47.8984 266.57 48.125C267.039 48.3516 267.57 48.4648 268.164 48.4648C268.93 48.4648 269.578 48.3086 270.109 47.9961C270.641 47.6836 271.105 47.2656 271.504 46.7422L272.816 47.7852C272.543 48.1992 272.195 48.5938 271.773 48.9688C271.352 49.3438 270.832 49.6484 270.215 49.8828C269.605 50.1172 268.883 50.2344 268.047 50.2344Z" fill="black"/>
<ellipse cx="299.18" cy="30.4918" rx="6.22951" ry="6.22951" fill="#007AFF"/>
<circle cx="307.049" cy="37.0492" r="2.95082" fill="#007AFF"/>
<circle cx="288.033" cy="18.0328" r="18.0328" fill="#007AFF"/>
<path d="M279.02 14.8706C278.411 12.8798 279.697 10.8088 281.752 10.4722V10.4722C283.806 10.1356 285.686 11.6879 285.744 13.769L286.104 26.6892C286.128 27.5339 285.523 28.2659 284.689 28.4025V28.4025C283.855 28.5392 283.049 28.0383 282.801 27.2302L279.02 14.8706Z" fill="white"/>
<ellipse cx="285.153" cy="31.2336" rx="1.96721" ry="1.91257" transform="rotate(-9.3044 285.153 31.2336)" fill="white"/>
<path d="M288.867 7.81758C288.834 5.07726 291.238 2.94451 293.955 3.30354V3.30354C296.672 3.66257 298.44 6.34657 297.696 8.98433L293.468 23.9882C293.164 25.0645 292.116 25.7545 291.008 25.608V25.608C289.899 25.4616 289.067 24.523 289.053 23.4048L288.867 7.81758Z" fill="white"/>
<ellipse cx="290.542" cy="29.1298" rx="2.5975" ry="2.36825" transform="rotate(7.52784 290.542 29.1298)" fill="white"/>
</svg>
