<svg width="220" height="74" viewBox="0 0 220 74" fill="none" xmlns="http://www.w3.org/2000/svg">
<rect width="204" height="74" rx="32" fill="#007AFF"/>
<path d="M220 73.1618C203.639 77.222 191.183 65.5488 187 59.2046L187.465 40.1721C191.958 41.4409 200.525 42.5829 203.5 37C203.035 59.839 216.746 71.2585 220 73.1618Z" fill="#007AFF"/>
<path d="M39.0469 22.082V28.8438C38.7812 29.1641 38.3711 29.5117 37.8164 29.8867C37.2617 30.2539 36.5469 30.5703 35.6719 30.8359C34.7969 31.1016 33.7383 31.2344 32.4961 31.2344C31.3945 31.2344 30.3906 31.0547 29.4844 30.6953C28.5781 30.3281 27.7969 29.793 27.1406 29.0898C26.4922 28.3867 25.9922 27.5273 25.6406 26.5117C25.2891 25.4883 25.1133 24.3203 25.1133 23.0078V21.9414C25.1133 20.6289 25.2812 19.4609 25.6172 18.4375C25.9609 17.4141 26.4492 16.5508 27.082 15.8477C27.7148 15.1445 28.4688 14.6094 29.3438 14.2422C30.2188 13.875 31.1914 13.6914 32.2617 13.6914C33.7461 13.6914 34.9648 13.9336 35.918 14.418C36.8711 14.8945 37.5977 15.5586 38.0977 16.4102C38.6055 17.2539 38.918 18.2227 39.0352 19.3164H35.625C35.5391 18.7383 35.375 18.2344 35.1328 17.8047C34.8906 17.375 34.543 17.0391 34.0898 16.7969C33.6445 16.5547 33.0664 16.4336 32.3555 16.4336C31.7695 16.4336 31.2461 16.5547 30.7852 16.7969C30.332 17.0312 29.9492 17.3789 29.6367 17.8398C29.3242 18.3008 29.0859 18.8711 28.9219 19.5508C28.7578 20.2305 28.6758 21.0195 28.6758 21.918V23.0078C28.6758 23.8984 28.7617 24.6875 28.9336 25.375C29.1055 26.0547 29.3594 26.6289 29.6953 27.0977C30.0391 27.5586 30.4609 27.9062 30.9609 28.1406C31.4609 28.375 32.043 28.4922 32.707 28.4922C33.2617 28.4922 33.7227 28.4453 34.0898 28.3516C34.4648 28.2578 34.7656 28.1445 34.9922 28.0117C35.2266 27.8711 35.4062 27.7383 35.5312 27.6133V24.5898H32.3203V22.082H39.0469ZM47.5078 31.2344C46.5234 31.2344 45.6406 31.0781 44.8594 30.7656C44.0781 30.4453 43.4141 30.0039 42.8672 29.4414C42.3281 28.8789 41.9141 28.2266 41.625 27.4844C41.3359 26.7344 41.1914 25.9375 41.1914 25.0938V24.625C41.1914 23.6641 41.3281 22.7852 41.6016 21.9883C41.875 21.1914 42.2656 20.5 42.7734 19.9141C43.2891 19.3281 43.9141 18.8789 44.6484 18.5664C45.3828 18.2461 46.2109 18.0859 47.1328 18.0859C48.0312 18.0859 48.8281 18.2344 49.5234 18.5312C50.2188 18.8281 50.8008 19.25 51.2695 19.7969C51.7461 20.3438 52.1055 21 52.3477 21.7656C52.5898 22.5234 52.7109 23.3672 52.7109 24.2969V25.7031H42.6328V23.4531H49.3945V23.1953C49.3945 22.7266 49.3086 22.3086 49.1367 21.9414C48.9727 21.5664 48.7227 21.2695 48.3867 21.0508C48.0508 20.832 47.6211 20.7227 47.0977 20.7227C46.6523 20.7227 46.2695 20.8203 45.9492 21.0156C45.6289 21.2109 45.3672 21.4844 45.1641 21.8359C44.9688 22.1875 44.8203 22.6016 44.7188 23.0781C44.625 23.5469 44.5781 24.0625 44.5781 24.625V25.0938C44.5781 25.6016 44.6484 26.0703 44.7891 26.5C44.9375 26.9297 45.1445 27.3008 45.4102 27.6133C45.6836 27.9258 46.0117 28.168 46.3945 28.3398C46.7852 28.5117 47.2266 28.5977 47.7188 28.5977C48.3281 28.5977 48.8945 28.4805 49.418 28.2461C49.9492 28.0039 50.4062 27.6406 50.7891 27.1562L52.4297 28.9375C52.1641 29.3203 51.8008 29.6875 51.3398 30.0391C50.8867 30.3906 50.3398 30.6797 49.6992 30.9062C49.0586 31.125 48.3281 31.2344 47.5078 31.2344ZM60.8438 18.3203V20.7109H53.4609V18.3203H60.8438ZM55.2891 15.1914H58.6641V27.1797C58.6641 27.5469 58.7109 27.8281 58.8047 28.0234C58.9062 28.2188 59.0547 28.3555 59.25 28.4336C59.4453 28.5039 59.6914 28.5391 59.9883 28.5391C60.1992 28.5391 60.3867 28.5312 60.5508 28.5156C60.7227 28.4922 60.8672 28.4688 60.9844 28.4453L60.9961 30.9297C60.707 31.0234 60.3945 31.0977 60.0586 31.1523C59.7227 31.207 59.3516 31.2344 58.9453 31.2344C58.2031 31.2344 57.5547 31.1133 57 30.8711C56.4531 30.6211 56.0312 30.2227 55.7344 29.6758C55.4375 29.1289 55.2891 28.4102 55.2891 27.5195V15.1914ZM75.5859 28.1406V22.4922C75.5859 22.0859 75.5195 21.7383 75.3867 21.4492C75.2539 21.1523 75.0469 20.9219 74.7656 20.7578C74.4922 20.5938 74.1367 20.5117 73.6992 20.5117C73.3242 20.5117 73 20.5781 72.7266 20.7109C72.4531 20.8359 72.2422 21.0195 72.0938 21.2617C71.9453 21.4961 71.8711 21.7734 71.8711 22.0938H68.4961C68.4961 21.5547 68.6211 21.043 68.8711 20.5586C69.1211 20.0742 69.4844 19.6484 69.9609 19.2812C70.4375 18.9062 71.0039 18.6133 71.6602 18.4023C72.3242 18.1914 73.0664 18.0859 73.8867 18.0859C74.8711 18.0859 75.7461 18.25 76.5117 18.5781C77.2773 18.9062 77.8789 19.3984 78.3164 20.0547C78.7617 20.7109 78.9844 21.5312 78.9844 22.5156V27.9414C78.9844 28.6367 79.0273 29.207 79.1133 29.6523C79.1992 30.0898 79.3242 30.4727 79.4883 30.8008V31H76.0781C75.9141 30.6562 75.7891 30.2266 75.7031 29.7109C75.625 29.1875 75.5859 28.6641 75.5859 28.1406ZM76.0312 23.2773L76.0547 25.1875H74.168C73.7227 25.1875 73.3359 25.2383 73.0078 25.3398C72.6797 25.4414 72.4102 25.5859 72.1992 25.7734C71.9883 25.9531 71.832 26.1641 71.7305 26.4062C71.6367 26.6484 71.5898 26.9141 71.5898 27.2031C71.5898 27.4922 71.6562 27.7539 71.7891 27.9883C71.9219 28.2148 72.1133 28.3945 72.3633 28.5273C72.6133 28.6523 72.9062 28.7148 73.2422 28.7148C73.75 28.7148 74.1914 28.6133 74.5664 28.4102C74.9414 28.207 75.2305 27.957 75.4336 27.6602C75.6445 27.3633 75.7539 27.082 75.7617 26.8164L76.6523 28.2461C76.5273 28.5664 76.3555 28.8984 76.1367 29.2422C75.9258 29.5859 75.6562 29.9102 75.3281 30.2148C75 30.5117 74.6055 30.7578 74.1445 30.9531C73.6836 31.1406 73.1367 31.2344 72.5039 31.2344C71.6992 31.2344 70.9688 31.0742 70.3125 30.7539C69.6641 30.4258 69.1484 29.9766 68.7656 29.4062C68.3906 28.8281 68.2031 28.1719 68.2031 27.4375C68.2031 26.7734 68.3281 26.1836 68.5781 25.668C68.8281 25.1523 69.1953 24.7188 69.6797 24.3672C70.1719 24.0078 70.7852 23.7383 71.5195 23.5586C72.2539 23.3711 73.1055 23.2773 74.0742 23.2773H76.0312ZM95.5898 18.3203H98.6484V30.5781C98.6484 31.7344 98.3906 32.7148 97.875 33.5195C97.3672 34.332 96.6562 34.9453 95.7422 35.3594C94.8281 35.7812 93.7656 35.9922 92.5547 35.9922C92.0234 35.9922 91.4609 35.9219 90.8672 35.7812C90.2812 35.6406 89.7188 35.4219 89.1797 35.125C88.6484 34.8281 88.2031 34.4531 87.8438 34L89.332 32.0078C89.7227 32.4609 90.1758 32.8125 90.6914 33.0625C91.207 33.3203 91.7773 33.4492 92.4023 33.4492C93.0117 33.4492 93.5273 33.3359 93.9492 33.1094C94.3711 32.8906 94.6953 32.5664 94.9219 32.1367C95.1484 31.7148 95.2617 31.2031 95.2617 30.6016V21.25L95.5898 18.3203ZM87.0586 24.8125V24.5664C87.0586 23.5977 87.1758 22.7188 87.4102 21.9297C87.6523 21.1328 87.9922 20.4492 88.4297 19.8789C88.875 19.3086 89.4141 18.8672 90.0469 18.5547C90.6797 18.2422 91.3945 18.0859 92.1914 18.0859C93.0352 18.0859 93.7422 18.2422 94.3125 18.5547C94.8828 18.8672 95.3516 19.3125 95.7188 19.8906C96.0859 20.4609 96.3711 21.1367 96.5742 21.918C96.7852 22.6914 96.9492 23.5391 97.0664 24.4609V25C96.9492 25.8828 96.7734 26.7031 96.5391 27.4609C96.3047 28.2188 95.9961 28.8828 95.6133 29.4531C95.2305 30.0156 94.7539 30.4531 94.1836 30.7656C93.6211 31.0781 92.9492 31.2344 92.168 31.2344C91.3867 31.2344 90.6797 31.0742 90.0469 30.7539C89.4219 30.4336 88.8867 29.9844 88.4414 29.4062C87.9961 28.8281 87.6523 28.1484 87.4102 27.3672C87.1758 26.5859 87.0586 25.7344 87.0586 24.8125ZM90.4336 24.5664V24.8125C90.4336 25.3359 90.4844 25.8242 90.5859 26.2773C90.6875 26.7305 90.8438 27.1328 91.0547 27.4844C91.2734 27.8281 91.543 28.0977 91.8633 28.293C92.1914 28.4805 92.5781 28.5742 93.0234 28.5742C93.6406 28.5742 94.1445 28.4453 94.5352 28.1875C94.9258 27.9219 95.2188 27.5586 95.4141 27.0977C95.6094 26.6367 95.7227 26.1055 95.7539 25.5039V23.9688C95.7383 23.4766 95.6719 23.0352 95.5547 22.6445C95.4375 22.2461 95.2734 21.9062 95.0625 21.625C94.8516 21.3438 94.5781 21.125 94.2422 20.9688C93.9062 20.8125 93.5078 20.7344 93.0469 20.7344C92.6016 20.7344 92.2148 20.8359 91.8867 21.0391C91.5664 21.2344 91.2969 21.5039 91.0781 21.8477C90.8672 22.1914 90.707 22.5977 90.5977 23.0664C90.4883 23.5273 90.4336 24.0273 90.4336 24.5664ZM104.836 18.3203V31H101.449V18.3203H104.836ZM101.238 15.0156C101.238 14.5234 101.41 14.1172 101.754 13.7969C102.098 13.4766 102.559 13.3164 103.137 13.3164C103.707 13.3164 104.164 13.4766 104.508 13.7969C104.859 14.1172 105.035 14.5234 105.035 15.0156C105.035 15.5078 104.859 15.9141 104.508 16.2344C104.164 16.5547 103.707 16.7148 103.137 16.7148C102.559 16.7148 102.098 16.5547 101.754 16.2344C101.41 15.9141 101.238 15.5078 101.238 15.0156ZM111.926 31H108.527V17.1953C108.527 16.2344 108.715 15.4258 109.09 14.7695C109.473 14.1055 110.008 13.6055 110.695 13.2695C111.391 12.9258 112.215 12.7539 113.168 12.7539C113.48 12.7539 113.781 12.7773 114.07 12.8242C114.359 12.8633 114.641 12.9141 114.914 12.9766L114.879 15.5195C114.73 15.4805 114.574 15.4531 114.41 15.4375C114.246 15.4219 114.055 15.4141 113.836 15.4141C113.43 15.4141 113.082 15.4844 112.793 15.625C112.512 15.7578 112.297 15.957 112.148 16.2227C112 16.4883 111.926 16.8125 111.926 17.1953V31ZM114.457 18.3203V20.7109H106.641V18.3203H114.457ZM122.438 18.3203V20.7109H115.055V18.3203H122.438ZM116.883 15.1914H120.258V27.1797C120.258 27.5469 120.305 27.8281 120.398 28.0234C120.5 28.2188 120.648 28.3555 120.844 28.4336C121.039 28.5039 121.285 28.5391 121.582 28.5391C121.793 28.5391 121.98 28.5312 122.145 28.5156C122.316 28.4922 122.461 28.4688 122.578 28.4453L122.59 30.9297C122.301 31.0234 121.988 31.0977 121.652 31.1523C121.316 31.207 120.945 31.2344 120.539 31.2344C119.797 31.2344 119.148 31.1133 118.594 30.8711C118.047 30.6211 117.625 30.2227 117.328 29.6758C117.031 29.1289 116.883 28.4102 116.883 27.5195V15.1914ZM135.574 28.5977C135.988 28.5977 136.355 28.5195 136.676 28.3633C136.996 28.1992 137.246 27.9727 137.426 27.6836C137.613 27.3867 137.711 27.0391 137.719 26.6406H140.895C140.887 27.5312 140.648 28.3242 140.18 29.0195C139.711 29.707 139.082 30.25 138.293 30.6484C137.504 31.0391 136.621 31.2344 135.645 31.2344C134.66 31.2344 133.801 31.0703 133.066 30.7422C132.34 30.4141 131.734 29.9609 131.25 29.3828C130.766 28.7969 130.402 28.1172 130.16 27.3438C129.918 26.5625 129.797 25.7266 129.797 24.8359V24.4961C129.797 23.5977 129.918 22.7617 130.16 21.9883C130.402 21.207 130.766 20.5273 131.25 19.9492C131.734 19.3633 132.34 18.9062 133.066 18.5781C133.793 18.25 134.645 18.0859 135.621 18.0859C136.66 18.0859 137.57 18.2852 138.352 18.6836C139.141 19.082 139.758 19.6523 140.203 20.3945C140.656 21.1289 140.887 22 140.895 23.0078H137.719C137.711 22.5859 137.621 22.2031 137.449 21.8594C137.285 21.5156 137.043 21.2422 136.723 21.0391C136.41 20.8281 136.023 20.7227 135.562 20.7227C135.07 20.7227 134.668 20.8281 134.355 21.0391C134.043 21.2422 133.801 21.5234 133.629 21.8828C133.457 22.2344 133.336 22.6367 133.266 23.0898C133.203 23.5352 133.172 24.0039 133.172 24.4961V24.8359C133.172 25.3281 133.203 25.8008 133.266 26.2539C133.328 26.707 133.445 27.1094 133.617 27.4609C133.797 27.8125 134.043 28.0898 134.355 28.293C134.668 28.4961 135.074 28.5977 135.574 28.5977ZM149.695 28.1406V22.4922C149.695 22.0859 149.629 21.7383 149.496 21.4492C149.363 21.1523 149.156 20.9219 148.875 20.7578C148.602 20.5938 148.246 20.5117 147.809 20.5117C147.434 20.5117 147.109 20.5781 146.836 20.7109C146.562 20.8359 146.352 21.0195 146.203 21.2617C146.055 21.4961 145.98 21.7734 145.98 22.0938H142.605C142.605 21.5547 142.73 21.043 142.98 20.5586C143.23 20.0742 143.594 19.6484 144.07 19.2812C144.547 18.9062 145.113 18.6133 145.77 18.4023C146.434 18.1914 147.176 18.0859 147.996 18.0859C148.98 18.0859 149.855 18.25 150.621 18.5781C151.387 18.9062 151.988 19.3984 152.426 20.0547C152.871 20.7109 153.094 21.5312 153.094 22.5156V27.9414C153.094 28.6367 153.137 29.207 153.223 29.6523C153.309 30.0898 153.434 30.4727 153.598 30.8008V31H150.188C150.023 30.6562 149.898 30.2266 149.812 29.7109C149.734 29.1875 149.695 28.6641 149.695 28.1406ZM150.141 23.2773L150.164 25.1875H148.277C147.832 25.1875 147.445 25.2383 147.117 25.3398C146.789 25.4414 146.52 25.5859 146.309 25.7734C146.098 25.9531 145.941 26.1641 145.84 26.4062C145.746 26.6484 145.699 26.9141 145.699 27.2031C145.699 27.4922 145.766 27.7539 145.898 27.9883C146.031 28.2148 146.223 28.3945 146.473 28.5273C146.723 28.6523 147.016 28.7148 147.352 28.7148C147.859 28.7148 148.301 28.6133 148.676 28.4102C149.051 28.207 149.34 27.957 149.543 27.6602C149.754 27.3633 149.863 27.082 149.871 26.8164L150.762 28.2461C150.637 28.5664 150.465 28.8984 150.246 29.2422C150.035 29.5859 149.766 29.9102 149.438 30.2148C149.109 30.5117 148.715 30.7578 148.254 30.9531C147.793 31.1406 147.246 31.2344 146.613 31.2344C145.809 31.2344 145.078 31.0742 144.422 30.7539C143.773 30.4258 143.258 29.9766 142.875 29.4062C142.5 28.8281 142.312 28.1719 142.312 27.4375C142.312 26.7734 142.438 26.1836 142.688 25.668C142.938 25.1523 143.305 24.7188 143.789 24.3672C144.281 24.0078 144.895 23.7383 145.629 23.5586C146.363 23.3711 147.215 23.2773 148.184 23.2773H150.141ZM159.07 21.0859V31H155.695V18.3203H158.871L159.07 21.0859ZM162.891 18.2383L162.832 21.3672C162.668 21.3438 162.469 21.3242 162.234 21.3086C162.008 21.2852 161.801 21.2734 161.613 21.2734C161.137 21.2734 160.723 21.3359 160.371 21.4609C160.027 21.5781 159.738 21.7539 159.504 21.9883C159.277 22.2227 159.105 22.5078 158.988 22.8438C158.879 23.1797 158.816 23.5625 158.801 23.9922L158.121 23.7812C158.121 22.9609 158.203 22.207 158.367 21.5195C158.531 20.8242 158.77 20.2188 159.082 19.7031C159.402 19.1875 159.793 18.7891 160.254 18.5078C160.715 18.2266 161.242 18.0859 161.836 18.0859C162.023 18.0859 162.215 18.1016 162.41 18.1328C162.605 18.1562 162.766 18.1914 162.891 18.2383ZM171.738 28.2344V13H175.137V31H172.078L171.738 28.2344ZM163.723 24.8125V24.5664C163.723 23.5977 163.832 22.7188 164.051 21.9297C164.27 21.1328 164.59 20.4492 165.012 19.8789C165.434 19.3086 165.953 18.8672 166.57 18.5547C167.188 18.2422 167.891 18.0859 168.68 18.0859C169.422 18.0859 170.07 18.2422 170.625 18.5547C171.188 18.8672 171.664 19.3125 172.055 19.8906C172.453 20.4609 172.773 21.1367 173.016 21.918C173.258 22.6914 173.434 23.5391 173.543 24.4609V25C173.434 25.8828 173.258 26.7031 173.016 27.4609C172.773 28.2188 172.453 28.8828 172.055 29.4531C171.664 30.0156 171.188 30.4531 170.625 30.7656C170.062 31.0781 169.406 31.2344 168.656 31.2344C167.867 31.2344 167.164 31.0742 166.547 30.7539C165.938 30.4336 165.422 29.9844 165 29.4062C164.586 28.8281 164.27 28.1484 164.051 27.3672C163.832 26.5859 163.723 25.7344 163.723 24.8125ZM167.098 24.5664V24.8125C167.098 25.3359 167.137 25.8242 167.215 26.2773C167.301 26.7305 167.438 27.1328 167.625 27.4844C167.82 27.8281 168.07 28.0977 168.375 28.293C168.688 28.4805 169.066 28.5742 169.512 28.5742C170.09 28.5742 170.566 28.4453 170.941 28.1875C171.316 27.9219 171.602 27.5586 171.797 27.0977C172 26.6367 172.117 26.1055 172.148 25.5039V23.9688C172.125 23.4766 172.055 23.0352 171.938 22.6445C171.828 22.2461 171.664 21.9062 171.445 21.625C171.234 21.3438 170.969 21.125 170.648 20.9688C170.336 20.8125 169.965 20.7344 169.535 20.7344C169.098 20.7344 168.723 20.8359 168.41 21.0391C168.098 21.2344 167.844 21.5039 167.648 21.8477C167.461 22.1914 167.32 22.5977 167.227 23.0664C167.141 23.5273 167.098 24.0273 167.098 24.5664ZM32.8125 55.9648V46.3203H36.1875V59H33.0117L32.8125 55.9648ZM33.1875 53.3633L34.1836 53.3398C34.1836 54.1836 34.0859 54.9688 33.8906 55.6953C33.6953 56.4141 33.4023 57.0391 33.0117 57.5703C32.6211 58.0938 32.1289 58.5039 31.5352 58.8008C30.9414 59.0898 30.2422 59.2344 29.4375 59.2344C28.8203 59.2344 28.25 59.1484 27.7266 58.9766C27.2109 58.7969 26.7656 58.5195 26.3906 58.1445C26.0234 57.7617 25.7344 57.2734 25.5234 56.6797C25.3203 56.0781 25.2188 55.3555 25.2188 54.5117V46.3203H28.5938V54.5352C28.5938 54.9102 28.6367 55.2266 28.7227 55.4844C28.8164 55.7422 28.9453 55.9531 29.1094 56.1172C29.2734 56.2812 29.4648 56.3984 29.6836 56.4688C29.9102 56.5391 30.1602 56.5742 30.4336 56.5742C31.1289 56.5742 31.6758 56.4336 32.0742 56.1523C32.4805 55.8711 32.7656 55.4883 32.9297 55.0039C33.1016 54.5117 33.1875 53.9648 33.1875 53.3633ZM42.1406 48.7578V63.875H38.7656V46.3203H41.8945L42.1406 48.7578ZM50.168 52.5195V52.7656C50.168 53.6875 50.0586 54.543 49.8398 55.332C49.6289 56.1211 49.3164 56.8086 48.9023 57.3945C48.4883 57.9727 47.9727 58.4258 47.3555 58.7539C46.7461 59.0742 46.043 59.2344 45.2461 59.2344C44.4727 59.2344 43.8008 59.0781 43.2305 58.7656C42.6602 58.4531 42.1797 58.0156 41.7891 57.4531C41.4062 56.8828 41.0977 56.2227 40.8633 55.4727C40.6289 54.7227 40.4492 53.918 40.3242 53.0586V52.4141C40.4492 51.4922 40.6289 50.6484 40.8633 49.8828C41.0977 49.1094 41.4062 48.4414 41.7891 47.8789C42.1797 47.3086 42.6562 46.8672 43.2188 46.5547C43.7891 46.2422 44.457 46.0859 45.2227 46.0859C46.0273 46.0859 46.7344 46.2383 47.3438 46.543C47.9609 46.8477 48.4766 47.2852 48.8906 47.8555C49.3125 48.4258 49.6289 49.1055 49.8398 49.8945C50.0586 50.6836 50.168 51.5586 50.168 52.5195ZM46.7812 52.7656V52.5195C46.7812 51.9805 46.7344 51.4844 46.6406 51.0312C46.5547 50.5703 46.4141 50.168 46.2188 49.8242C46.0312 49.4805 45.7812 49.2148 45.4688 49.0273C45.1641 48.832 44.793 48.7344 44.3555 48.7344C43.8945 48.7344 43.5 48.8086 43.1719 48.957C42.8516 49.1055 42.5898 49.3203 42.3867 49.6016C42.1836 49.8828 42.0312 50.2188 41.9297 50.6094C41.8281 51 41.7656 51.4414 41.7422 51.9336V53.5625C41.7812 54.1406 41.8906 54.6602 42.0703 55.1211C42.25 55.5742 42.5273 55.9336 42.9023 56.1992C43.2773 56.4648 43.7695 56.5977 44.3789 56.5977C44.8242 56.5977 45.1992 56.5 45.5039 56.3047C45.8086 56.1016 46.0547 55.8242 46.2422 55.4727C46.4375 55.1211 46.5742 54.7148 46.6523 54.2539C46.7383 53.793 46.7812 53.2969 46.7812 52.7656ZM64.4531 46.3203V48.7109H57.0703V46.3203H64.4531ZM58.8984 43.1914H62.2734V55.1797C62.2734 55.5469 62.3203 55.8281 62.4141 56.0234C62.5156 56.2188 62.6641 56.3555 62.8594 56.4336C63.0547 56.5039 63.3008 56.5391 63.5977 56.5391C63.8086 56.5391 63.9961 56.5312 64.1602 56.5156C64.332 56.4922 64.4766 56.4688 64.5938 56.4453L64.6055 58.9297C64.3164 59.0234 64.0039 59.0977 63.668 59.1523C63.332 59.207 62.9609 59.2344 62.5547 59.2344C61.8125 59.2344 61.1641 59.1133 60.6094 58.8711C60.0625 58.6211 59.6406 58.2227 59.3438 57.6758C59.0469 57.1289 58.8984 56.4102 58.8984 55.5195V43.1914ZM65.5312 52.7891V52.543C65.5312 51.6133 65.6641 50.7578 65.9297 49.9766C66.1953 49.1875 66.582 48.5039 67.0898 47.9258C67.5977 47.3477 68.2227 46.8984 68.9648 46.5781C69.707 46.25 70.5586 46.0859 71.5195 46.0859C72.4805 46.0859 73.3359 46.25 74.0859 46.5781C74.8359 46.8984 75.4648 47.3477 75.9727 47.9258C76.4883 48.5039 76.8789 49.1875 77.1445 49.9766C77.4102 50.7578 77.543 51.6133 77.543 52.543V52.7891C77.543 53.7109 77.4102 54.5664 77.1445 55.3555C76.8789 56.1367 76.4883 56.8203 75.9727 57.4062C75.4648 57.9844 74.8398 58.4336 74.0977 58.7539C73.3555 59.0742 72.5039 59.2344 71.543 59.2344C70.582 59.2344 69.7266 59.0742 68.9766 58.7539C68.2344 58.4336 67.6055 57.9844 67.0898 57.4062C66.582 56.8203 66.1953 56.1367 65.9297 55.3555C65.6641 54.5664 65.5312 53.7109 65.5312 52.7891ZM68.9062 52.543V52.7891C68.9062 53.3203 68.9531 53.8164 69.0469 54.2773C69.1406 54.7383 69.2891 55.1445 69.4922 55.4961C69.7031 55.8398 69.9766 56.1094 70.3125 56.3047C70.6484 56.5 71.0586 56.5977 71.543 56.5977C72.0117 56.5977 72.4141 56.5 72.75 56.3047C73.0859 56.1094 73.3555 55.8398 73.5586 55.4961C73.7617 55.1445 73.9102 54.7383 74.0039 54.2773C74.1055 53.8164 74.1562 53.3203 74.1562 52.7891V52.543C74.1562 52.0273 74.1055 51.543 74.0039 51.0898C73.9102 50.6289 73.7578 50.2227 73.5469 49.8711C73.3438 49.5117 73.0742 49.2305 72.7383 49.0273C72.4023 48.8242 71.9961 48.7227 71.5195 48.7227C71.043 48.7227 70.6367 48.8242 70.3008 49.0273C69.9727 49.2305 69.7031 49.5117 69.4922 49.8711C69.2891 50.2227 69.1406 50.6289 69.0469 51.0898C68.9531 51.543 68.9062 52.0273 68.9062 52.543ZM92.4961 39.2305V42.6875H90.668V39.2305H92.4961ZM92.2734 58.3672V61.5195H90.4453V58.3672H92.2734ZM93.5625 54.5234C93.5625 54.0781 93.4805 53.6992 93.3164 53.3867C93.1602 53.0742 92.9023 52.7969 92.543 52.5547C92.1914 52.3125 91.7148 52.0781 91.1133 51.8516C90.0977 51.4609 89.2031 51.0469 88.4297 50.6094C87.6641 50.1641 87.0664 49.6133 86.6367 48.957C86.207 48.293 85.9922 47.4531 85.9922 46.4375C85.9922 45.4688 86.2227 44.6289 86.6836 43.918C87.1445 43.207 87.7812 42.6602 88.5938 42.2773C89.4141 41.8867 90.3672 41.6914 91.4531 41.6914C92.2812 41.6914 93.0312 41.8164 93.7031 42.0664C94.375 42.3086 94.9531 42.668 95.4375 43.1445C95.9219 43.6133 96.293 44.1875 96.5508 44.8672C96.8086 45.5469 96.9375 46.3242 96.9375 47.1992H93.5742C93.5742 46.7305 93.5234 46.3164 93.4219 45.957C93.3203 45.5977 93.1719 45.2969 92.9766 45.0547C92.7891 44.8125 92.5625 44.6328 92.2969 44.5156C92.0312 44.3906 91.7383 44.3281 91.418 44.3281C90.9414 44.3281 90.5508 44.4219 90.2461 44.6094C89.9414 44.7969 89.7188 45.0508 89.5781 45.3711C89.4453 45.6836 89.3789 46.043 89.3789 46.4492C89.3789 46.8477 89.4492 47.1953 89.5898 47.4922C89.7383 47.7891 89.9922 48.0625 90.3516 48.3125C90.7109 48.5547 91.2031 48.8047 91.8281 49.0625C92.8438 49.4531 93.7344 49.875 94.5 50.3281C95.2656 50.7812 95.8633 51.3359 96.293 51.9922C96.7227 52.6484 96.9375 53.4844 96.9375 54.5C96.9375 55.5078 96.7031 56.3672 96.2344 57.0781C95.7656 57.7812 95.1094 58.3203 94.2656 58.6953C93.4219 59.0625 92.4453 59.2461 91.3359 59.2461C90.6172 59.2461 89.9023 59.1523 89.1914 58.9648C88.4805 58.7695 87.8359 58.457 87.2578 58.0273C86.6797 57.5977 86.2188 57.0273 85.875 56.3164C85.5312 55.5977 85.3594 54.7148 85.3594 53.668H88.7344C88.7344 54.2383 88.8086 54.7148 88.957 55.0977C89.1055 55.4727 89.3008 55.7734 89.543 56C89.793 56.2188 90.0742 56.375 90.3867 56.4688C90.6992 56.5625 91.0156 56.6094 91.3359 56.6094C91.8359 56.6094 92.2461 56.5195 92.5664 56.3398C92.8945 56.1602 93.1406 55.9141 93.3047 55.6016C93.4766 55.2812 93.5625 54.9219 93.5625 54.5234ZM107.461 41.9023V59H104.086V45.793L100.031 47.082V44.4219L107.098 41.9023H107.461ZM116.191 51.2305L113.496 50.5859L114.469 41.9375H124.055V44.668H117.246L116.824 48.4531C117.051 48.3203 117.395 48.1797 117.855 48.0312C118.316 47.875 118.832 47.7969 119.402 47.7969C120.23 47.7969 120.965 47.9258 121.605 48.1836C122.246 48.4414 122.789 48.8164 123.234 49.3086C123.688 49.8008 124.031 50.4023 124.266 51.1133C124.5 51.8242 124.617 52.6289 124.617 53.5273C124.617 54.2852 124.5 55.0078 124.266 55.6953C124.031 56.375 123.676 56.9844 123.199 57.5234C122.723 58.0547 122.125 58.4727 121.406 58.7773C120.688 59.082 119.836 59.2344 118.852 59.2344C118.117 59.2344 117.406 59.125 116.719 58.9062C116.039 58.6875 115.426 58.3633 114.879 57.9336C114.34 57.5039 113.906 56.9844 113.578 56.375C113.258 55.7578 113.09 55.0547 113.074 54.2656H116.426C116.473 54.75 116.598 55.168 116.801 55.5195C117.012 55.8633 117.289 56.1289 117.633 56.3164C117.977 56.5039 118.379 56.5977 118.84 56.5977C119.27 56.5977 119.637 56.5156 119.941 56.3516C120.246 56.1875 120.492 55.9609 120.68 55.6719C120.867 55.375 121.004 55.0312 121.09 54.6406C121.184 54.2422 121.23 53.8125 121.23 53.3516C121.23 52.8906 121.176 52.4727 121.066 52.0977C120.957 51.7227 120.789 51.3984 120.562 51.125C120.336 50.8516 120.047 50.6406 119.695 50.4922C119.352 50.3438 118.949 50.2695 118.488 50.2695C117.863 50.2695 117.379 50.3672 117.035 50.5625C116.699 50.7578 116.418 50.9805 116.191 51.2305ZM138.281 48.9688V51.9219C138.281 53.2031 138.145 54.3086 137.871 55.2383C137.598 56.1602 137.203 56.918 136.688 57.5117C136.18 58.0977 135.574 58.5312 134.871 58.8125C134.168 59.0938 133.387 59.2344 132.527 59.2344C131.84 59.2344 131.199 59.1484 130.605 58.9766C130.012 58.7969 129.477 58.5195 129 58.1445C128.531 57.7695 128.125 57.2969 127.781 56.7266C127.445 56.1484 127.188 55.4609 127.008 54.6641C126.828 53.8672 126.738 52.9531 126.738 51.9219V48.9688C126.738 47.6875 126.875 46.5898 127.148 45.6758C127.43 44.7539 127.824 44 128.332 43.4141C128.848 42.8281 129.457 42.3984 130.16 42.125C130.863 41.8438 131.645 41.7031 132.504 41.7031C133.191 41.7031 133.828 41.793 134.414 41.9727C135.008 42.1445 135.543 42.4141 136.02 42.7812C136.496 43.1484 136.902 43.6211 137.238 44.1992C137.574 44.7695 137.832 45.4531 138.012 46.25C138.191 47.0391 138.281 47.9453 138.281 48.9688ZM134.895 52.3672V48.5117C134.895 47.8945 134.859 47.3555 134.789 46.8945C134.727 46.4336 134.629 46.043 134.496 45.7227C134.363 45.3945 134.199 45.1289 134.004 44.9258C133.809 44.7227 133.586 44.5742 133.336 44.4805C133.086 44.3867 132.809 44.3398 132.504 44.3398C132.121 44.3398 131.781 44.4141 131.484 44.5625C131.195 44.7109 130.949 44.9492 130.746 45.2773C130.543 45.5977 130.387 46.0273 130.277 46.5664C130.176 47.0977 130.125 47.7461 130.125 48.5117V52.3672C130.125 52.9844 130.156 53.5273 130.219 53.9961C130.289 54.4648 130.391 54.8672 130.523 55.2031C130.664 55.5312 130.828 55.8008 131.016 56.0117C131.211 56.2148 131.434 56.3633 131.684 56.457C131.941 56.5508 132.223 56.5977 132.527 56.5977C132.902 56.5977 133.234 56.5234 133.523 56.375C133.82 56.2188 134.07 55.9766 134.273 55.6484C134.484 55.3125 134.641 54.875 134.742 54.3359C134.844 53.7969 134.895 53.1406 134.895 52.3672ZM140.883 50.8906L143.449 47.6914L139.723 46.6367L140.426 44.5742L144.082 46.0273L143.859 41.9375H146.133L145.887 46.1094L149.473 44.668L150.164 46.7656L146.379 47.8203L148.863 50.9492L147.023 52.2383L144.867 48.8164L142.723 52.1328L140.883 50.8906Z" fill="white"/>
</svg>
