<svg width="255" height="159" viewBox="0 0 255 159" fill="none" xmlns="http://www.w3.org/2000/svg">
<rect width="239" height="159" rx="32" fill="#007AFF"/>
<path d="M255 158.162C238.639 162.222 226.183 150.549 222 144.205L222.465 125.172C226.958 126.441 235.525 127.583 238.5 122C238.035 144.839 251.746 156.259 255 158.162Z" fill="#007AFF"/>
<path d="M34.6719 33.5195H27.3672L27.3281 29.4961H33.4609C34.5417 29.4961 35.4271 29.3594 36.1172 29.0859C36.8073 28.7995 37.3216 28.3893 37.6602 27.8555C38.0117 27.3086 38.1875 26.6445 38.1875 25.8633C38.1875 24.9779 38.0182 24.2617 37.6797 23.7148C37.3542 23.168 36.8398 22.7708 36.1367 22.5234C35.4466 22.276 34.5547 22.1523 33.4609 22.1523H29.3984V46H23.5391V17.5625H33.4609C35.1146 17.5625 36.5924 17.7188 37.8945 18.0312C39.2096 18.3438 40.3229 18.819 41.2344 19.457C42.1458 20.0951 42.8424 20.9023 43.3242 21.8789C43.806 22.8424 44.0469 23.9883 44.0469 25.3164C44.0469 26.4883 43.7799 27.569 43.2461 28.5586C42.7253 29.5482 41.8984 30.3555 40.7656 30.9805C39.6458 31.6055 38.181 31.9505 36.3711 32.0156L34.6719 33.5195ZM34.418 46H25.7656L28.0508 41.4297H34.418C35.4466 41.4297 36.2865 41.2669 36.9375 40.9414C37.5885 40.6029 38.0703 40.1471 38.3828 39.5742C38.6953 39.0013 38.8516 38.3438 38.8516 37.6016C38.8516 36.7682 38.7083 36.0456 38.4219 35.4336C38.1484 34.8216 37.7057 34.3529 37.0938 34.0273C36.4818 33.6888 35.6745 33.5195 34.6719 33.5195H29.0273L29.0664 29.4961H36.0977L37.4453 31.0781C39.1771 31.0521 40.5703 31.3581 41.625 31.9961C42.6927 32.6211 43.4674 33.4349 43.9492 34.4375C44.444 35.4401 44.6914 36.5143 44.6914 37.6602C44.6914 39.4831 44.2943 41.0195 43.5 42.2695C42.7057 43.5065 41.5404 44.4375 40.0039 45.0625C38.4805 45.6875 36.6185 46 34.418 46ZM61.2344 40.9414V24.8672H66.8594V46H61.5664L61.2344 40.9414ZM61.8594 36.6055L63.5195 36.5664C63.5195 37.9727 63.3568 39.2812 63.0312 40.4922C62.7057 41.6901 62.2174 42.7318 61.5664 43.6172C60.9154 44.4896 60.0951 45.1732 59.1055 45.668C58.1159 46.1497 56.9505 46.3906 55.6094 46.3906C54.5807 46.3906 53.6302 46.2474 52.7578 45.9609C51.8984 45.6615 51.1562 45.1992 50.5312 44.5742C49.9193 43.9362 49.4375 43.1224 49.0859 42.1328C48.7474 41.1302 48.5781 39.9258 48.5781 38.5195V24.8672H54.2031V38.5586C54.2031 39.1836 54.2747 39.7109 54.418 40.1406C54.5742 40.5703 54.7891 40.9219 55.0625 41.1953C55.3359 41.4688 55.6549 41.6641 56.0195 41.7812C56.3971 41.8984 56.8138 41.957 57.2695 41.957C58.4284 41.957 59.3398 41.7227 60.0039 41.2539C60.681 40.7852 61.1562 40.1471 61.4297 39.3398C61.7161 38.5195 61.8594 37.6081 61.8594 36.6055ZM77.4258 43.6172L83.0312 24.8672H89.0664L80.5703 49.1836C80.388 49.7174 80.1406 50.2904 79.8281 50.9023C79.5286 51.5143 79.1185 52.0938 78.5977 52.6406C78.0898 53.2005 77.4453 53.6562 76.6641 54.0078C75.8958 54.3594 74.9518 54.5352 73.832 54.5352C73.2982 54.5352 72.862 54.5026 72.5234 54.4375C72.1849 54.3724 71.7812 54.2812 71.3125 54.1641V50.043C71.4557 50.043 71.6055 50.043 71.7617 50.043C71.918 50.056 72.0677 50.0625 72.2109 50.0625C72.9531 50.0625 73.5586 49.9779 74.0273 49.8086C74.4961 49.6393 74.8737 49.3789 75.1602 49.0273C75.4466 48.6888 75.6745 48.2461 75.8438 47.6992L77.4258 43.6172ZM75.082 24.8672L79.6719 40.1797L80.4727 46.1367L76.6445 46.5469L69.0469 24.8672H75.082ZM104.301 17.5625H109.262L116.566 38.4414L123.871 17.5625H128.832L118.559 46H114.574L104.301 17.5625ZM101.625 17.5625H106.566L107.465 37.9141V46H101.625V17.5625ZM126.566 17.5625H131.527V46H125.668V37.9141L126.566 17.5625ZM147.719 41.2344V31.8203C147.719 31.1432 147.608 30.5638 147.387 30.082C147.165 29.5872 146.82 29.2031 146.352 28.9297C145.896 28.6562 145.303 28.5195 144.574 28.5195C143.949 28.5195 143.409 28.6302 142.953 28.8516C142.497 29.0599 142.146 29.3659 141.898 29.7695C141.651 30.1602 141.527 30.6224 141.527 31.1562H135.902C135.902 30.2578 136.111 29.4049 136.527 28.5977C136.944 27.7904 137.549 27.0807 138.344 26.4688C139.138 25.8438 140.082 25.3555 141.176 25.0039C142.283 24.6523 143.52 24.4766 144.887 24.4766C146.527 24.4766 147.986 24.75 149.262 25.2969C150.538 25.8438 151.54 26.6641 152.27 27.7578C153.012 28.8516 153.383 30.2188 153.383 31.8594V40.9023C153.383 42.0612 153.454 43.0117 153.598 43.7539C153.741 44.4831 153.949 45.1211 154.223 45.668V46H148.539C148.266 45.4271 148.057 44.7109 147.914 43.8516C147.784 42.9792 147.719 42.1068 147.719 41.2344ZM148.461 33.1289L148.5 36.3125H145.355C144.613 36.3125 143.969 36.3971 143.422 36.5664C142.875 36.7357 142.426 36.9766 142.074 37.2891C141.723 37.5885 141.462 37.9401 141.293 38.3438C141.137 38.7474 141.059 39.1901 141.059 39.6719C141.059 40.1536 141.169 40.5898 141.391 40.9805C141.612 41.3581 141.931 41.6576 142.348 41.8789C142.764 42.0872 143.253 42.1914 143.812 42.1914C144.659 42.1914 145.395 42.0221 146.02 41.6836C146.645 41.3451 147.126 40.9284 147.465 40.4336C147.816 39.9388 147.999 39.4701 148.012 39.0273L149.496 41.4102C149.288 41.944 149.001 42.4974 148.637 43.0703C148.285 43.6432 147.836 44.1836 147.289 44.6914C146.742 45.1862 146.085 45.5964 145.316 45.9219C144.548 46.2344 143.637 46.3906 142.582 46.3906C141.241 46.3906 140.023 46.1237 138.93 45.5898C137.849 45.043 136.99 44.2943 136.352 43.3438C135.727 42.3802 135.414 41.2865 135.414 40.0625C135.414 38.9557 135.622 37.9727 136.039 37.1133C136.456 36.2539 137.068 35.5312 137.875 34.9453C138.695 34.3464 139.717 33.8971 140.941 33.5977C142.165 33.2852 143.585 33.1289 145.199 33.1289H148.461ZM166.449 41.9961C167.139 41.9961 167.751 41.8659 168.285 41.6055C168.819 41.332 169.236 40.9544 169.535 40.4727C169.848 39.9779 170.01 39.3984 170.023 38.7344H175.316C175.303 40.2188 174.906 41.5404 174.125 42.6992C173.344 43.8451 172.296 44.75 170.98 45.4141C169.665 46.0651 168.194 46.3906 166.566 46.3906C164.926 46.3906 163.493 46.1172 162.27 45.5703C161.059 45.0234 160.049 44.2682 159.242 43.3047C158.435 42.3281 157.829 41.1953 157.426 39.9062C157.022 38.6042 156.82 37.2109 156.82 35.7266V35.1602C156.82 33.6628 157.022 32.2695 157.426 30.9805C157.829 29.6784 158.435 28.5456 159.242 27.582C160.049 26.6055 161.059 25.8438 162.27 25.2969C163.48 24.75 164.9 24.4766 166.527 24.4766C168.259 24.4766 169.776 24.8086 171.078 25.4727C172.393 26.1367 173.422 27.0872 174.164 28.3242C174.919 29.5482 175.303 31 175.316 32.6797H170.023C170.01 31.9766 169.861 31.3385 169.574 30.7656C169.301 30.1927 168.897 29.737 168.363 29.3984C167.842 29.0469 167.198 28.8711 166.43 28.8711C165.609 28.8711 164.939 29.0469 164.418 29.3984C163.897 29.737 163.493 30.2057 163.207 30.8047C162.921 31.3906 162.719 32.0612 162.602 32.8164C162.497 33.5586 162.445 34.3398 162.445 35.1602V35.7266C162.445 36.5469 162.497 37.3346 162.602 38.0898C162.706 38.8451 162.901 39.5156 163.188 40.1016C163.487 40.6875 163.897 41.1497 164.418 41.4883C164.939 41.8268 165.616 41.9961 166.449 41.9961ZM22.2891 82.6484V82.2383C22.2891 80.6888 22.5104 79.263 22.9531 77.9609C23.3958 76.6458 24.0404 75.5065 24.8867 74.543C25.7331 73.5794 26.7747 72.8307 28.0117 72.2969C29.2487 71.75 30.668 71.4766 32.2695 71.4766C33.8711 71.4766 35.2969 71.75 36.5469 72.2969C37.7969 72.8307 38.8451 73.5794 39.6914 74.543C40.5508 75.5065 41.2018 76.6458 41.6445 77.9609C42.0872 79.263 42.3086 80.6888 42.3086 82.2383V82.6484C42.3086 84.1849 42.0872 85.6107 41.6445 86.9258C41.2018 88.2279 40.5508 89.3672 39.6914 90.3438C38.8451 91.3073 37.8034 92.056 36.5664 92.5898C35.3294 93.1237 33.9102 93.3906 32.3086 93.3906C30.707 93.3906 29.2812 93.1237 28.0312 92.5898C26.7943 92.056 25.7461 91.3073 24.8867 90.3438C24.0404 89.3672 23.3958 88.2279 22.9531 86.9258C22.5104 85.6107 22.2891 84.1849 22.2891 82.6484ZM27.9141 82.2383V82.6484C27.9141 83.5339 27.9922 84.3607 28.1484 85.1289C28.3047 85.8971 28.5521 86.5742 28.8906 87.1602C29.2422 87.7331 29.6979 88.1823 30.2578 88.5078C30.8177 88.8333 31.5013 88.9961 32.3086 88.9961C33.0898 88.9961 33.7604 88.8333 34.3203 88.5078C34.8802 88.1823 35.3294 87.7331 35.668 87.1602C36.0065 86.5742 36.2539 85.8971 36.4102 85.1289C36.5794 84.3607 36.6641 83.5339 36.6641 82.6484V82.2383C36.6641 81.3789 36.5794 80.5716 36.4102 79.8164C36.2539 79.0482 36 78.3711 35.6484 77.7852C35.3099 77.1862 34.8607 76.7174 34.3008 76.3789C33.7409 76.0404 33.0638 75.8711 32.2695 75.8711C31.4753 75.8711 30.7982 76.0404 30.2383 76.3789C29.6914 76.7174 29.2422 77.1862 28.8906 77.7852C28.5521 78.3711 28.3047 79.0482 28.1484 79.8164C27.9922 80.5716 27.9141 81.3789 27.9141 82.2383ZM51.3906 76.4766V93H45.7656V71.8672H51.0586L51.3906 76.4766ZM57.7578 71.7305L57.6602 76.9453C57.3867 76.9062 57.0547 76.8737 56.6641 76.8477C56.2865 76.8086 55.9414 76.7891 55.6289 76.7891C54.8346 76.7891 54.1445 76.8932 53.5586 77.1016C52.9857 77.2969 52.5039 77.5898 52.1133 77.9805C51.7357 78.3711 51.4492 78.8464 51.2539 79.4062C51.0716 79.9661 50.9674 80.6042 50.9414 81.3203L49.8086 80.9688C49.8086 79.6016 49.9453 78.3451 50.2188 77.1992C50.4922 76.0404 50.8893 75.0312 51.4102 74.1719C51.944 73.3125 52.5951 72.6484 53.3633 72.1797C54.1315 71.7109 55.0104 71.4766 56 71.4766C56.3125 71.4766 56.6315 71.5026 56.957 71.5547C57.2826 71.5938 57.5495 71.6523 57.7578 71.7305ZM76.3125 71.8672V93H70.668V71.8672H76.3125ZM70.3164 66.3594C70.3164 65.5391 70.6029 64.862 71.1758 64.3281C71.7487 63.7943 72.5169 63.5273 73.4805 63.5273C74.431 63.5273 75.1927 63.7943 75.7656 64.3281C76.3516 64.862 76.6445 65.5391 76.6445 66.3594C76.6445 67.1797 76.3516 67.8568 75.7656 68.3906C75.1927 68.9245 74.431 69.1914 73.4805 69.1914C72.5169 69.1914 71.7487 68.9245 71.1758 68.3906C70.6029 67.8568 70.3164 67.1797 70.3164 66.3594ZM92.3867 82.8633H85.1406V78.293H92.3867C93.5065 78.293 94.418 78.1107 95.1211 77.7461C95.8242 77.3685 96.3385 76.8477 96.6641 76.1836C96.9896 75.5195 97.1523 74.7708 97.1523 73.9375C97.1523 73.0911 96.9896 72.3034 96.6641 71.5742C96.3385 70.8451 95.8242 70.2591 95.1211 69.8164C94.418 69.3737 93.5065 69.1523 92.3867 69.1523H87.1719V93H81.3125V64.5625H92.3867C94.6133 64.5625 96.5208 64.9661 98.1094 65.7734C99.7109 66.5677 100.935 67.668 101.781 69.0742C102.628 70.4805 103.051 72.0885 103.051 73.8984C103.051 75.7344 102.628 77.3229 101.781 78.6641C100.935 80.0052 99.7109 81.0404 98.1094 81.7695C96.5208 82.4987 94.6133 82.8633 92.3867 82.8633ZM117.914 88.2344V78.8203C117.914 78.1432 117.803 77.5638 117.582 77.082C117.361 76.5872 117.016 76.2031 116.547 75.9297C116.091 75.6562 115.499 75.5195 114.77 75.5195C114.145 75.5195 113.604 75.6302 113.148 75.8516C112.693 76.0599 112.341 76.3659 112.094 76.7695C111.846 77.1602 111.723 77.6224 111.723 78.1562H106.098C106.098 77.2578 106.306 76.4049 106.723 75.5977C107.139 74.7904 107.745 74.0807 108.539 73.4688C109.333 72.8438 110.277 72.3555 111.371 72.0039C112.478 71.6523 113.715 71.4766 115.082 71.4766C116.723 71.4766 118.181 71.75 119.457 72.2969C120.733 72.8438 121.736 73.6641 122.465 74.7578C123.207 75.8516 123.578 77.2188 123.578 78.8594V87.9023C123.578 89.0612 123.65 90.0117 123.793 90.7539C123.936 91.4831 124.145 92.1211 124.418 92.668V93H118.734C118.461 92.4271 118.253 91.7109 118.109 90.8516C117.979 89.9792 117.914 89.1068 117.914 88.2344ZM118.656 80.1289L118.695 83.3125H115.551C114.809 83.3125 114.164 83.3971 113.617 83.5664C113.07 83.7357 112.621 83.9766 112.27 84.2891C111.918 84.5885 111.658 84.9401 111.488 85.3438C111.332 85.7474 111.254 86.1901 111.254 86.6719C111.254 87.1536 111.365 87.5898 111.586 87.9805C111.807 88.3581 112.126 88.6576 112.543 88.8789C112.96 89.0872 113.448 89.1914 114.008 89.1914C114.854 89.1914 115.59 89.0221 116.215 88.6836C116.84 88.3451 117.322 87.9284 117.66 87.4336C118.012 86.9388 118.194 86.4701 118.207 86.0273L119.691 88.4102C119.483 88.944 119.197 89.4974 118.832 90.0703C118.48 90.6432 118.031 91.1836 117.484 91.6914C116.938 92.1862 116.28 92.5964 115.512 92.9219C114.743 93.2344 113.832 93.3906 112.777 93.3906C111.436 93.3906 110.219 93.1237 109.125 92.5898C108.044 92.043 107.185 91.2943 106.547 90.3438C105.922 89.3802 105.609 88.2865 105.609 87.0625C105.609 85.9557 105.818 84.9727 106.234 84.1133C106.651 83.2539 107.263 82.5312 108.07 81.9453C108.891 81.3464 109.913 80.8971 111.137 80.5977C112.361 80.2852 113.78 80.1289 115.395 80.1289H118.656ZM140.395 88.3906V63H146.059V93H140.961L140.395 88.3906ZM127.035 82.6875V82.2773C127.035 80.6628 127.217 79.1979 127.582 77.8828C127.947 76.5547 128.48 75.4154 129.184 74.4648C129.887 73.5143 130.753 72.7786 131.781 72.2578C132.81 71.737 133.982 71.4766 135.297 71.4766C136.534 71.4766 137.615 71.737 138.539 72.2578C139.477 72.7786 140.271 73.5208 140.922 74.4844C141.586 75.4349 142.12 76.5612 142.523 77.8633C142.927 79.1523 143.22 80.5651 143.402 82.1016V83C143.22 84.4714 142.927 85.8385 142.523 87.1016C142.12 88.3646 141.586 89.4714 140.922 90.4219C140.271 91.3594 139.477 92.0885 138.539 92.6094C137.602 93.1302 136.508 93.3906 135.258 93.3906C133.943 93.3906 132.771 93.1237 131.742 92.5898C130.727 92.056 129.867 91.3073 129.164 90.3438C128.474 89.3802 127.947 88.2474 127.582 86.9453C127.217 85.6432 127.035 84.224 127.035 82.6875ZM132.66 82.2773V82.6875C132.66 83.5599 132.725 84.3737 132.855 85.1289C132.999 85.8841 133.227 86.5547 133.539 87.1406C133.865 87.7135 134.281 88.1628 134.789 88.4883C135.31 88.8008 135.941 88.957 136.684 88.957C137.647 88.957 138.441 88.7422 139.066 88.3125C139.691 87.8698 140.167 87.2643 140.492 86.4961C140.831 85.7279 141.026 84.8424 141.078 83.8398V81.2812C141.039 80.4609 140.922 79.7253 140.727 79.0742C140.544 78.4102 140.271 77.8438 139.906 77.375C139.555 76.9062 139.112 76.5417 138.578 76.2812C138.057 76.0208 137.439 75.8906 136.723 75.8906C135.993 75.8906 135.368 76.0599 134.848 76.3984C134.327 76.724 133.904 77.1732 133.578 77.7461C133.266 78.319 133.031 78.9961 132.875 79.7773C132.732 80.5456 132.66 81.3789 132.66 82.2773ZM30.3555 140H24.6914V116.992C24.6914 115.391 25.0039 114.043 25.6289 112.949C26.2669 111.842 27.1589 111.009 28.3047 110.449C29.4635 109.876 30.8372 109.59 32.4258 109.59C32.9466 109.59 33.4479 109.629 33.9297 109.707C34.4115 109.772 34.8802 109.857 35.3359 109.961L35.2773 114.199C35.0299 114.134 34.7695 114.089 34.4961 114.062C34.2227 114.036 33.9036 114.023 33.5391 114.023C32.862 114.023 32.2826 114.141 31.8008 114.375C31.332 114.596 30.974 114.928 30.7266 115.371C30.4792 115.814 30.3555 116.354 30.3555 116.992V140ZM34.5742 118.867V122.852H21.5469V118.867H34.5742ZM36.625 129.648V129.238C36.625 127.689 36.8464 126.263 37.2891 124.961C37.7318 123.646 38.3763 122.507 39.2227 121.543C40.069 120.579 41.1107 119.831 42.3477 119.297C43.5846 118.75 45.0039 118.477 46.6055 118.477C48.207 118.477 49.6328 118.75 50.8828 119.297C52.1328 119.831 53.181 120.579 54.0273 121.543C54.8867 122.507 55.5378 123.646 55.9805 124.961C56.4232 126.263 56.6445 127.689 56.6445 129.238V129.648C56.6445 131.185 56.4232 132.611 55.9805 133.926C55.5378 135.228 54.8867 136.367 54.0273 137.344C53.181 138.307 52.1393 139.056 50.9023 139.59C49.6654 140.124 48.2461 140.391 46.6445 140.391C45.043 140.391 43.6172 140.124 42.3672 139.59C41.1302 139.056 40.082 138.307 39.2227 137.344C38.3763 136.367 37.7318 135.228 37.2891 133.926C36.8464 132.611 36.625 131.185 36.625 129.648ZM42.25 129.238V129.648C42.25 130.534 42.3281 131.361 42.4844 132.129C42.6406 132.897 42.888 133.574 43.2266 134.16C43.5781 134.733 44.0339 135.182 44.5938 135.508C45.1536 135.833 45.8372 135.996 46.6445 135.996C47.4258 135.996 48.0964 135.833 48.6562 135.508C49.2161 135.182 49.6654 134.733 50.0039 134.16C50.3424 133.574 50.5898 132.897 50.7461 132.129C50.9154 131.361 51 130.534 51 129.648V129.238C51 128.379 50.9154 127.572 50.7461 126.816C50.5898 126.048 50.3359 125.371 49.9844 124.785C49.6458 124.186 49.1966 123.717 48.6367 123.379C48.0768 123.04 47.3997 122.871 46.6055 122.871C45.8112 122.871 45.1341 123.04 44.5742 123.379C44.0273 123.717 43.5781 124.186 43.2266 124.785C42.888 125.371 42.6406 126.048 42.4844 126.816C42.3281 127.572 42.25 128.379 42.25 129.238ZM65.7266 123.477V140H60.1016V118.867H65.3945L65.7266 123.477ZM72.0938 118.73L71.9961 123.945C71.7227 123.906 71.3906 123.874 71 123.848C70.6224 123.809 70.2773 123.789 69.9648 123.789C69.1706 123.789 68.4805 123.893 67.8945 124.102C67.3216 124.297 66.8398 124.59 66.4492 124.98C66.0716 125.371 65.7852 125.846 65.5898 126.406C65.4076 126.966 65.3034 127.604 65.2773 128.32L64.1445 127.969C64.1445 126.602 64.2812 125.345 64.5547 124.199C64.8281 123.04 65.2253 122.031 65.7461 121.172C66.2799 120.312 66.931 119.648 67.6992 119.18C68.4674 118.711 69.3464 118.477 70.3359 118.477C70.6484 118.477 70.9674 118.503 71.293 118.555C71.6185 118.594 71.8854 118.652 72.0938 118.73ZM93.4414 135.996C94.1315 135.996 94.7435 135.866 95.2773 135.605C95.8112 135.332 96.2279 134.954 96.5273 134.473C96.8398 133.978 97.0026 133.398 97.0156 132.734H102.309C102.296 134.219 101.898 135.54 101.117 136.699C100.336 137.845 99.2878 138.75 97.9727 139.414C96.6576 140.065 95.1862 140.391 93.5586 140.391C91.918 140.391 90.4857 140.117 89.2617 139.57C88.0508 139.023 87.0417 138.268 86.2344 137.305C85.4271 136.328 84.8216 135.195 84.418 133.906C84.0143 132.604 83.8125 131.211 83.8125 129.727V129.16C83.8125 127.663 84.0143 126.27 84.418 124.98C84.8216 123.678 85.4271 122.546 86.2344 121.582C87.0417 120.605 88.0508 119.844 89.2617 119.297C90.4727 118.75 91.8919 118.477 93.5195 118.477C95.2513 118.477 96.7682 118.809 98.0703 119.473C99.3854 120.137 100.414 121.087 101.156 122.324C101.911 123.548 102.296 125 102.309 126.68H97.0156C97.0026 125.977 96.8529 125.339 96.5664 124.766C96.293 124.193 95.8893 123.737 95.3555 123.398C94.8346 123.047 94.1901 122.871 93.4219 122.871C92.6016 122.871 91.931 123.047 91.4102 123.398C90.8893 123.737 90.4857 124.206 90.1992 124.805C89.9128 125.391 89.7109 126.061 89.5938 126.816C89.4896 127.559 89.4375 128.34 89.4375 129.16V129.727C89.4375 130.547 89.4896 131.335 89.5938 132.09C89.6979 132.845 89.8932 133.516 90.1797 134.102C90.4792 134.688 90.8893 135.15 91.4102 135.488C91.931 135.827 92.6081 135.996 93.4414 135.996ZM104.672 129.648V129.238C104.672 127.689 104.893 126.263 105.336 124.961C105.779 123.646 106.423 122.507 107.27 121.543C108.116 120.579 109.158 119.831 110.395 119.297C111.632 118.75 113.051 118.477 114.652 118.477C116.254 118.477 117.68 118.75 118.93 119.297C120.18 119.831 121.228 120.579 122.074 121.543C122.934 122.507 123.585 123.646 124.027 124.961C124.47 126.263 124.691 127.689 124.691 129.238V129.648C124.691 131.185 124.47 132.611 124.027 133.926C123.585 135.228 122.934 136.367 122.074 137.344C121.228 138.307 120.186 139.056 118.949 139.59C117.712 140.124 116.293 140.391 114.691 140.391C113.09 140.391 111.664 140.124 110.414 139.59C109.177 139.056 108.129 138.307 107.27 137.344C106.423 136.367 105.779 135.228 105.336 133.926C104.893 132.611 104.672 131.185 104.672 129.648ZM110.297 129.238V129.648C110.297 130.534 110.375 131.361 110.531 132.129C110.688 132.897 110.935 133.574 111.273 134.16C111.625 134.733 112.081 135.182 112.641 135.508C113.201 135.833 113.884 135.996 114.691 135.996C115.473 135.996 116.143 135.833 116.703 135.508C117.263 135.182 117.712 134.733 118.051 134.16C118.389 133.574 118.637 132.897 118.793 132.129C118.962 131.361 119.047 130.534 119.047 129.648V129.238C119.047 128.379 118.962 127.572 118.793 126.816C118.637 126.048 118.383 125.371 118.031 124.785C117.693 124.186 117.243 123.717 116.684 123.379C116.124 123.04 115.447 122.871 114.652 122.871C113.858 122.871 113.181 123.04 112.621 123.379C112.074 123.717 111.625 124.186 111.273 124.785C110.935 125.371 110.688 126.048 110.531 126.816C110.375 127.572 110.297 128.379 110.297 129.238ZM134.086 110V140H128.441V110H134.086ZM144.672 110V140H139.027V110H144.672ZM159.047 140.391C157.406 140.391 155.935 140.13 154.633 139.609C153.331 139.076 152.224 138.34 151.312 137.402C150.414 136.465 149.724 135.378 149.242 134.141C148.76 132.891 148.52 131.562 148.52 130.156V129.375C148.52 127.773 148.747 126.309 149.203 124.98C149.659 123.652 150.31 122.5 151.156 121.523C152.016 120.547 153.057 119.798 154.281 119.277C155.505 118.743 156.885 118.477 158.422 118.477C159.919 118.477 161.247 118.724 162.406 119.219C163.565 119.714 164.535 120.417 165.316 121.328C166.111 122.24 166.71 123.333 167.113 124.609C167.517 125.872 167.719 127.279 167.719 128.828V131.172H150.922V127.422H162.191V126.992C162.191 126.211 162.048 125.514 161.762 124.902C161.488 124.277 161.072 123.783 160.512 123.418C159.952 123.053 159.236 122.871 158.363 122.871C157.621 122.871 156.983 123.034 156.449 123.359C155.915 123.685 155.479 124.141 155.141 124.727C154.815 125.312 154.568 126.003 154.398 126.797C154.242 127.578 154.164 128.438 154.164 129.375V130.156C154.164 131.003 154.281 131.784 154.516 132.5C154.763 133.216 155.108 133.835 155.551 134.355C156.007 134.876 156.553 135.28 157.191 135.566C157.842 135.853 158.578 135.996 159.398 135.996C160.414 135.996 161.358 135.801 162.23 135.41C163.116 135.007 163.878 134.401 164.516 133.594L167.25 136.562C166.807 137.201 166.202 137.812 165.434 138.398C164.678 138.984 163.767 139.466 162.699 139.844C161.632 140.208 160.414 140.391 159.047 140.391ZM184.301 118.867H189.398V139.297C189.398 141.224 188.969 142.858 188.109 144.199C187.263 145.553 186.078 146.576 184.555 147.266C183.031 147.969 181.26 148.32 179.242 148.32C178.357 148.32 177.419 148.203 176.43 147.969C175.453 147.734 174.516 147.37 173.617 146.875C172.732 146.38 171.99 145.755 171.391 145L173.871 141.68C174.522 142.435 175.277 143.021 176.137 143.438C176.996 143.867 177.947 144.082 178.988 144.082C180.004 144.082 180.863 143.893 181.566 143.516C182.27 143.151 182.81 142.611 183.188 141.895C183.565 141.191 183.754 140.339 183.754 139.336V123.75L184.301 118.867ZM170.082 129.688V129.277C170.082 127.663 170.277 126.198 170.668 124.883C171.072 123.555 171.638 122.415 172.367 121.465C173.109 120.514 174.008 119.779 175.062 119.258C176.117 118.737 177.309 118.477 178.637 118.477C180.043 118.477 181.221 118.737 182.172 119.258C183.122 119.779 183.904 120.521 184.516 121.484C185.128 122.435 185.603 123.561 185.941 124.863C186.293 126.152 186.566 127.565 186.762 129.102V130C186.566 131.471 186.273 132.839 185.883 134.102C185.492 135.365 184.978 136.471 184.34 137.422C183.702 138.359 182.908 139.089 181.957 139.609C181.02 140.13 179.9 140.391 178.598 140.391C177.296 140.391 176.117 140.124 175.062 139.59C174.021 139.056 173.129 138.307 172.387 137.344C171.645 136.38 171.072 135.247 170.668 133.945C170.277 132.643 170.082 131.224 170.082 129.688ZM175.707 129.277V129.688C175.707 130.56 175.792 131.374 175.961 132.129C176.13 132.884 176.391 133.555 176.742 134.141C177.107 134.714 177.556 135.163 178.09 135.488C178.637 135.801 179.281 135.957 180.023 135.957C181.052 135.957 181.892 135.742 182.543 135.312C183.194 134.87 183.682 134.264 184.008 133.496C184.333 132.728 184.522 131.842 184.574 130.84V128.281C184.548 127.461 184.438 126.725 184.242 126.074C184.047 125.41 183.773 124.844 183.422 124.375C183.07 123.906 182.615 123.542 182.055 123.281C181.495 123.021 180.831 122.891 180.062 122.891C179.32 122.891 178.676 123.06 178.129 123.398C177.595 123.724 177.146 124.173 176.781 124.746C176.43 125.319 176.163 125.996 175.98 126.777C175.798 127.546 175.707 128.379 175.707 129.277ZM203.5 140.391C201.859 140.391 200.388 140.13 199.086 139.609C197.784 139.076 196.677 138.34 195.766 137.402C194.867 136.465 194.177 135.378 193.695 134.141C193.214 132.891 192.973 131.562 192.973 130.156V129.375C192.973 127.773 193.201 126.309 193.656 124.98C194.112 123.652 194.763 122.5 195.609 121.523C196.469 120.547 197.51 119.798 198.734 119.277C199.958 118.743 201.339 118.477 202.875 118.477C204.372 118.477 205.701 118.724 206.859 119.219C208.018 119.714 208.988 120.417 209.77 121.328C210.564 122.24 211.163 123.333 211.566 124.609C211.97 125.872 212.172 127.279 212.172 128.828V131.172H195.375V127.422H206.645V126.992C206.645 126.211 206.501 125.514 206.215 124.902C205.941 124.277 205.525 123.783 204.965 123.418C204.405 123.053 203.689 122.871 202.816 122.871C202.074 122.871 201.436 123.034 200.902 123.359C200.368 123.685 199.932 124.141 199.594 124.727C199.268 125.312 199.021 126.003 198.852 126.797C198.695 127.578 198.617 128.438 198.617 129.375V130.156C198.617 131.003 198.734 131.784 198.969 132.5C199.216 133.216 199.561 133.835 200.004 134.355C200.46 134.876 201.007 135.28 201.645 135.566C202.296 135.853 203.031 135.996 203.852 135.996C204.867 135.996 205.811 135.801 206.684 135.41C207.569 135.007 208.331 134.401 208.969 133.594L211.703 136.562C211.26 137.201 210.655 137.812 209.887 138.398C209.132 138.984 208.22 139.466 207.152 139.844C206.085 140.208 204.867 140.391 203.5 140.391Z" fill="white"/>
</svg>
