<svg width="295" height="51" viewBox="0 0 295 51" fill="none" xmlns="http://www.w3.org/2000/svg">
<rect width="283" height="51" rx="25.5" fill="#007AFF"/>
<path d="M295 50.4789C283.101 53.0029 274.042 45.7465 271 41.8029L271.338 29.9718C274.606 30.7606 280.837 31.4704 283 28C282.662 42.1972 292.634 49.2958 295 50.4789Z" fill="#007AFF"/>
<path d="M23.9336 30.7188L26.5703 21.3203H28.7148L28.0234 25.0117L25.3867 34H23.5938L23.9336 30.7188ZM22.5977 21.3203L24.4844 30.707L24.6602 34H22.5508L19.3398 21.3203H22.5977ZM31.1289 30.5547L32.9688 21.3203H36.2383L33.0273 34H30.9297L31.1289 30.5547ZM29.0078 21.3203L31.6328 30.6484L31.9961 34H30.1914L27.5547 25.0234L26.8867 21.3203H29.0078ZM41.5 21.3203V34H38.1133V21.3203H41.5ZM37.9023 18.0156C37.9023 17.5234 38.0742 17.1172 38.418 16.7969C38.7617 16.4766 39.2227 16.3164 39.8008 16.3164C40.3711 16.3164 40.8281 16.4766 41.1719 16.7969C41.5234 17.1172 41.6992 17.5234 41.6992 18.0156C41.6992 18.5078 41.5234 18.9141 41.1719 19.2344C40.8281 19.5547 40.3711 19.7148 39.8008 19.7148C39.2227 19.7148 38.7617 19.5547 38.418 19.2344C38.0742 18.9141 37.9023 18.5078 37.9023 18.0156ZM50.5 21.3203V23.7109H43.1172V21.3203H50.5ZM44.9453 18.1914H48.3203V30.1797C48.3203 30.5469 48.3672 30.8281 48.4609 31.0234C48.5625 31.2188 48.7109 31.3555 48.9062 31.4336C49.1016 31.5039 49.3477 31.5391 49.6445 31.5391C49.8555 31.5391 50.043 31.5312 50.207 31.5156C50.3789 31.4922 50.5234 31.4688 50.6406 31.4453L50.6523 33.9297C50.3633 34.0234 50.0508 34.0977 49.7148 34.1523C49.3789 34.207 49.0078 34.2344 48.6016 34.2344C47.8594 34.2344 47.2109 34.1133 46.6562 33.8711C46.1094 33.6211 45.6875 33.2227 45.3906 32.6758C45.0938 32.1289 44.9453 31.4102 44.9453 30.5195V18.1914ZM55.7148 16V34H52.3398V16H55.7148ZM55.2344 27.2148H54.3086C54.3164 26.332 54.4336 25.5195 54.6602 24.7773C54.8867 24.0273 55.2109 23.3789 55.6328 22.832C56.0547 22.2773 56.5586 21.8477 57.1445 21.543C57.7383 21.2383 58.3945 21.0859 59.1133 21.0859C59.7383 21.0859 60.3047 21.1758 60.8125 21.3555C61.3281 21.5273 61.7695 21.8086 62.1367 22.1992C62.5117 22.582 62.8008 23.0859 63.0039 23.7109C63.207 24.3359 63.3086 25.0938 63.3086 25.9844V34H59.9102V25.9609C59.9102 25.3984 59.8281 24.957 59.6641 24.6367C59.5078 24.3086 59.2773 24.0781 58.9727 23.9453C58.6758 23.8047 58.3086 23.7344 57.8711 23.7344C57.3867 23.7344 56.9727 23.8242 56.6289 24.0039C56.293 24.1836 56.0234 24.4336 55.8203 24.7539C55.6172 25.0664 55.4688 25.4336 55.375 25.8555C55.2812 26.2773 55.2344 26.7305 55.2344 27.2148ZM77.6875 34.2344C76.7031 34.2344 75.8203 34.0781 75.0391 33.7656C74.2578 33.4453 73.5938 33.0039 73.0469 32.4414C72.5078 31.8789 72.0938 31.2266 71.8047 30.4844C71.5156 29.7344 71.3711 28.9375 71.3711 28.0938V27.625C71.3711 26.6641 71.5078 25.7852 71.7812 24.9883C72.0547 24.1914 72.4453 23.5 72.9531 22.9141C73.4688 22.3281 74.0938 21.8789 74.8281 21.5664C75.5625 21.2461 76.3906 21.0859 77.3125 21.0859C78.2109 21.0859 79.0078 21.2344 79.7031 21.5312C80.3984 21.8281 80.9805 22.25 81.4492 22.7969C81.9258 23.3438 82.2852 24 82.5273 24.7656C82.7695 25.5234 82.8906 26.3672 82.8906 27.2969V28.7031H72.8125V26.4531H79.5742V26.1953C79.5742 25.7266 79.4883 25.3086 79.3164 24.9414C79.1523 24.5664 78.9023 24.2695 78.5664 24.0508C78.2305 23.832 77.8008 23.7227 77.2773 23.7227C76.832 23.7227 76.4492 23.8203 76.1289 24.0156C75.8086 24.2109 75.5469 24.4844 75.3438 24.8359C75.1484 25.1875 75 25.6016 74.8984 26.0781C74.8047 26.5469 74.7578 27.0625 74.7578 27.625V28.0938C74.7578 28.6016 74.8281 29.0703 74.9688 29.5C75.1172 29.9297 75.3242 30.3008 75.5898 30.6133C75.8633 30.9258 76.1914 31.168 76.5742 31.3398C76.9648 31.5117 77.4062 31.5977 77.8984 31.5977C78.5078 31.5977 79.0742 31.4805 79.5977 31.2461C80.1289 31.0039 80.5859 30.6406 80.9688 30.1562L82.6094 31.9375C82.3438 32.3203 81.9805 32.6875 81.5195 33.0391C81.0664 33.3906 80.5195 33.6797 79.8789 33.9062C79.2383 34.125 78.5078 34.2344 77.6875 34.2344ZM92.3008 31.2344V16H95.6992V34H92.6406L92.3008 31.2344ZM84.2852 27.8125V27.5664C84.2852 26.5977 84.3945 25.7188 84.6133 24.9297C84.832 24.1328 85.1523 23.4492 85.5742 22.8789C85.9961 22.3086 86.5156 21.8672 87.1328 21.5547C87.75 21.2422 88.4531 21.0859 89.2422 21.0859C89.9844 21.0859 90.6328 21.2422 91.1875 21.5547C91.75 21.8672 92.2266 22.3125 92.6172 22.8906C93.0156 23.4609 93.3359 24.1367 93.5781 24.918C93.8203 25.6914 93.9961 26.5391 94.1055 27.4609V28C93.9961 28.8828 93.8203 29.7031 93.5781 30.4609C93.3359 31.2188 93.0156 31.8828 92.6172 32.4531C92.2266 33.0156 91.75 33.4531 91.1875 33.7656C90.625 34.0781 89.9688 34.2344 89.2188 34.2344C88.4297 34.2344 87.7266 34.0742 87.1094 33.7539C86.5 33.4336 85.9844 32.9844 85.5625 32.4062C85.1484 31.8281 84.832 31.1484 84.6133 30.3672C84.3945 29.5859 84.2852 28.7344 84.2852 27.8125ZM87.6602 27.5664V27.8125C87.6602 28.3359 87.6992 28.8242 87.7773 29.2773C87.8633 29.7305 88 30.1328 88.1875 30.4844C88.3828 30.8281 88.6328 31.0977 88.9375 31.293C89.25 31.4805 89.6289 31.5742 90.0742 31.5742C90.6523 31.5742 91.1289 31.4453 91.5039 31.1875C91.8789 30.9219 92.1641 30.5586 92.3594 30.0977C92.5625 29.6367 92.6797 29.1055 92.7109 28.5039V26.9688C92.6875 26.4766 92.6172 26.0352 92.5 25.6445C92.3906 25.2461 92.2266 24.9062 92.0078 24.625C91.7969 24.3438 91.5312 24.125 91.2109 23.9688C90.8984 23.8125 90.5273 23.7344 90.0977 23.7344C89.6602 23.7344 89.2852 23.8359 88.9727 24.0391C88.6602 24.2344 88.4062 24.5039 88.2109 24.8477C88.0234 25.1914 87.8828 25.5977 87.7891 26.0664C87.7031 26.5273 87.6602 27.0273 87.6602 27.5664ZM105.836 30.9648V21.3203H109.211V34H106.035L105.836 30.9648ZM106.211 28.3633L107.207 28.3398C107.207 29.1836 107.109 29.9688 106.914 30.6953C106.719 31.4141 106.426 32.0391 106.035 32.5703C105.645 33.0938 105.152 33.5039 104.559 33.8008C103.965 34.0898 103.266 34.2344 102.461 34.2344C101.844 34.2344 101.273 34.1484 100.75 33.9766C100.234 33.7969 99.7891 33.5195 99.4141 33.1445C99.0469 32.7617 98.7578 32.2734 98.5469 31.6797C98.3438 31.0781 98.2422 30.3555 98.2422 29.5117V21.3203H101.617V29.5352C101.617 29.9102 101.66 30.2266 101.746 30.4844C101.84 30.7422 101.969 30.9531 102.133 31.1172C102.297 31.2812 102.488 31.3984 102.707 31.4688C102.934 31.5391 103.184 31.5742 103.457 31.5742C104.152 31.5742 104.699 31.4336 105.098 31.1523C105.504 30.8711 105.789 30.4883 105.953 30.0039C106.125 29.5117 106.211 28.9648 106.211 28.3633ZM117.027 31.5977C117.441 31.5977 117.809 31.5195 118.129 31.3633C118.449 31.1992 118.699 30.9727 118.879 30.6836C119.066 30.3867 119.164 30.0391 119.172 29.6406H122.348C122.34 30.5312 122.102 31.3242 121.633 32.0195C121.164 32.707 120.535 33.25 119.746 33.6484C118.957 34.0391 118.074 34.2344 117.098 34.2344C116.113 34.2344 115.254 34.0703 114.52 33.7422C113.793 33.4141 113.188 32.9609 112.703 32.3828C112.219 31.7969 111.855 31.1172 111.613 30.3438C111.371 29.5625 111.25 28.7266 111.25 27.8359V27.4961C111.25 26.5977 111.371 25.7617 111.613 24.9883C111.855 24.207 112.219 23.5273 112.703 22.9492C113.188 22.3633 113.793 21.9062 114.52 21.5781C115.246 21.25 116.098 21.0859 117.074 21.0859C118.113 21.0859 119.023 21.2852 119.805 21.6836C120.594 22.082 121.211 22.6523 121.656 23.3945C122.109 24.1289 122.34 25 122.348 26.0078H119.172C119.164 25.5859 119.074 25.2031 118.902 24.8594C118.738 24.5156 118.496 24.2422 118.176 24.0391C117.863 23.8281 117.477 23.7227 117.016 23.7227C116.523 23.7227 116.121 23.8281 115.809 24.0391C115.496 24.2422 115.254 24.5234 115.082 24.8828C114.91 25.2344 114.789 25.6367 114.719 26.0898C114.656 26.5352 114.625 27.0039 114.625 27.4961V27.8359C114.625 28.3281 114.656 28.8008 114.719 29.2539C114.781 29.707 114.898 30.1094 115.07 30.4609C115.25 30.8125 115.496 31.0898 115.809 31.293C116.121 31.4961 116.527 31.5977 117.027 31.5977ZM131.148 31.1406V25.4922C131.148 25.0859 131.082 24.7383 130.949 24.4492C130.816 24.1523 130.609 23.9219 130.328 23.7578C130.055 23.5938 129.699 23.5117 129.262 23.5117C128.887 23.5117 128.562 23.5781 128.289 23.7109C128.016 23.8359 127.805 24.0195 127.656 24.2617C127.508 24.4961 127.434 24.7734 127.434 25.0938H124.059C124.059 24.5547 124.184 24.043 124.434 23.5586C124.684 23.0742 125.047 22.6484 125.523 22.2812C126 21.9062 126.566 21.6133 127.223 21.4023C127.887 21.1914 128.629 21.0859 129.449 21.0859C130.434 21.0859 131.309 21.25 132.074 21.5781C132.84 21.9062 133.441 22.3984 133.879 23.0547C134.324 23.7109 134.547 24.5312 134.547 25.5156V30.9414C134.547 31.6367 134.59 32.207 134.676 32.6523C134.762 33.0898 134.887 33.4727 135.051 33.8008V34H131.641C131.477 33.6562 131.352 33.2266 131.266 32.7109C131.188 32.1875 131.148 31.6641 131.148 31.1406ZM131.594 26.2773L131.617 28.1875H129.73C129.285 28.1875 128.898 28.2383 128.57 28.3398C128.242 28.4414 127.973 28.5859 127.762 28.7734C127.551 28.9531 127.395 29.1641 127.293 29.4062C127.199 29.6484 127.152 29.9141 127.152 30.2031C127.152 30.4922 127.219 30.7539 127.352 30.9883C127.484 31.2148 127.676 31.3945 127.926 31.5273C128.176 31.6523 128.469 31.7148 128.805 31.7148C129.312 31.7148 129.754 31.6133 130.129 31.4102C130.504 31.207 130.793 30.957 130.996 30.6602C131.207 30.3633 131.316 30.082 131.324 29.8164L132.215 31.2461C132.09 31.5664 131.918 31.8984 131.699 32.2422C131.488 32.5859 131.219 32.9102 130.891 33.2148C130.562 33.5117 130.168 33.7578 129.707 33.9531C129.246 34.1406 128.699 34.2344 128.066 34.2344C127.262 34.2344 126.531 34.0742 125.875 33.7539C125.227 33.4258 124.711 32.9766 124.328 32.4062C123.953 31.8281 123.766 31.1719 123.766 30.4375C123.766 29.7734 123.891 29.1836 124.141 28.668C124.391 28.1523 124.758 27.7188 125.242 27.3672C125.734 27.0078 126.348 26.7383 127.082 26.5586C127.816 26.3711 128.668 26.2773 129.637 26.2773H131.594ZM143.359 21.3203V23.7109H135.977V21.3203H143.359ZM137.805 18.1914H141.18V30.1797C141.18 30.5469 141.227 30.8281 141.32 31.0234C141.422 31.2188 141.57 31.3555 141.766 31.4336C141.961 31.5039 142.207 31.5391 142.504 31.5391C142.715 31.5391 142.902 31.5312 143.066 31.5156C143.238 31.4922 143.383 31.4688 143.5 31.4453L143.512 33.9297C143.223 34.0234 142.91 34.0977 142.574 34.1523C142.238 34.207 141.867 34.2344 141.461 34.2344C140.719 34.2344 140.07 34.1133 139.516 33.8711C138.969 33.6211 138.547 33.2227 138.25 32.6758C137.953 32.1289 137.805 31.4102 137.805 30.5195V18.1914ZM148.844 21.3203V34H145.457V21.3203H148.844ZM145.246 18.0156C145.246 17.5234 145.418 17.1172 145.762 16.7969C146.105 16.4766 146.566 16.3164 147.145 16.3164C147.715 16.3164 148.172 16.4766 148.516 16.7969C148.867 17.1172 149.043 17.5234 149.043 18.0156C149.043 18.5078 148.867 18.9141 148.516 19.2344C148.172 19.5547 147.715 19.7148 147.145 19.7148C146.566 19.7148 146.105 19.5547 145.762 19.2344C145.418 18.9141 145.246 18.5078 145.246 18.0156ZM151.094 27.7891V27.543C151.094 26.6133 151.227 25.7578 151.492 24.9766C151.758 24.1875 152.145 23.5039 152.652 22.9258C153.16 22.3477 153.785 21.8984 154.527 21.5781C155.27 21.25 156.121 21.0859 157.082 21.0859C158.043 21.0859 158.898 21.25 159.648 21.5781C160.398 21.8984 161.027 22.3477 161.535 22.9258C162.051 23.5039 162.441 24.1875 162.707 24.9766C162.973 25.7578 163.105 26.6133 163.105 27.543V27.7891C163.105 28.7109 162.973 29.5664 162.707 30.3555C162.441 31.1367 162.051 31.8203 161.535 32.4062C161.027 32.9844 160.402 33.4336 159.66 33.7539C158.918 34.0742 158.066 34.2344 157.105 34.2344C156.145 34.2344 155.289 34.0742 154.539 33.7539C153.797 33.4336 153.168 32.9844 152.652 32.4062C152.145 31.8203 151.758 31.1367 151.492 30.3555C151.227 29.5664 151.094 28.7109 151.094 27.7891ZM154.469 27.543V27.7891C154.469 28.3203 154.516 28.8164 154.609 29.2773C154.703 29.7383 154.852 30.1445 155.055 30.4961C155.266 30.8398 155.539 31.1094 155.875 31.3047C156.211 31.5 156.621 31.5977 157.105 31.5977C157.574 31.5977 157.977 31.5 158.312 31.3047C158.648 31.1094 158.918 30.8398 159.121 30.4961C159.324 30.1445 159.473 29.7383 159.566 29.2773C159.668 28.8164 159.719 28.3203 159.719 27.7891V27.543C159.719 27.0273 159.668 26.543 159.566 26.0898C159.473 25.6289 159.32 25.2227 159.109 24.8711C158.906 24.5117 158.637 24.2305 158.301 24.0273C157.965 23.8242 157.559 23.7227 157.082 23.7227C156.605 23.7227 156.199 23.8242 155.863 24.0273C155.535 24.2305 155.266 24.5117 155.055 24.8711C154.852 25.2227 154.703 25.6289 154.609 26.0898C154.516 26.543 154.469 27.0273 154.469 27.543ZM168.484 24.0273V34H165.109V21.3203H168.273L168.484 24.0273ZM167.992 27.2148H167.078C167.078 26.2773 167.199 25.4336 167.441 24.6836C167.684 23.9258 168.023 23.2812 168.461 22.75C168.898 22.2109 169.418 21.8008 170.02 21.5195C170.629 21.2305 171.309 21.0859 172.059 21.0859C172.652 21.0859 173.195 21.1719 173.688 21.3438C174.18 21.5156 174.602 21.7891 174.953 22.1641C175.312 22.5391 175.586 23.0352 175.773 23.6523C175.969 24.2695 176.066 25.0234 176.066 25.9141V34H172.668V25.9023C172.668 25.3398 172.59 24.9023 172.434 24.5898C172.277 24.2773 172.047 24.0586 171.742 23.9336C171.445 23.8008 171.078 23.7344 170.641 23.7344C170.188 23.7344 169.793 23.8242 169.457 24.0039C169.129 24.1836 168.855 24.4336 168.637 24.7539C168.426 25.0664 168.266 25.4336 168.156 25.8555C168.047 26.2773 167.992 26.7305 167.992 27.2148ZM191.465 30.4961C191.465 30.2539 191.395 30.0352 191.254 29.8398C191.113 29.6445 190.852 29.4648 190.469 29.3008C190.094 29.1289 189.551 28.9727 188.84 28.832C188.199 28.6914 187.602 28.5156 187.047 28.3047C186.5 28.0859 186.023 27.8242 185.617 27.5195C185.219 27.2148 184.906 26.8555 184.68 26.4414C184.453 26.0195 184.34 25.5391 184.34 25C184.34 24.4688 184.453 23.9688 184.68 23.5C184.914 23.0312 185.246 22.6172 185.676 22.2578C186.113 21.8906 186.645 21.6055 187.27 21.4023C187.902 21.1914 188.613 21.0859 189.402 21.0859C190.504 21.0859 191.449 21.2617 192.238 21.6133C193.035 21.9648 193.645 22.4492 194.066 23.0664C194.496 23.6758 194.711 24.3711 194.711 25.1523H191.336C191.336 24.8242 191.266 24.5312 191.125 24.2734C190.992 24.0078 190.781 23.8008 190.492 23.6523C190.211 23.4961 189.844 23.418 189.391 23.418C189.016 23.418 188.691 23.4844 188.418 23.6172C188.145 23.7422 187.934 23.9141 187.785 24.1328C187.645 24.3438 187.574 24.5781 187.574 24.8359C187.574 25.0312 187.613 25.207 187.691 25.3633C187.777 25.5117 187.914 25.6484 188.102 25.7734C188.289 25.8984 188.531 26.0156 188.828 26.125C189.133 26.2266 189.508 26.3203 189.953 26.4062C190.867 26.5938 191.684 26.8398 192.402 27.1445C193.121 27.4414 193.691 27.8477 194.113 28.3633C194.535 28.8711 194.746 29.5391 194.746 30.3672C194.746 30.9297 194.621 31.4453 194.371 31.9141C194.121 32.3828 193.762 32.793 193.293 33.1445C192.824 33.4883 192.262 33.7578 191.605 33.9531C190.957 34.1406 190.227 34.2344 189.414 34.2344C188.234 34.2344 187.234 34.0234 186.414 33.6016C185.602 33.1797 184.984 32.6445 184.562 31.9961C184.148 31.3398 183.941 30.668 183.941 29.9805H187.141C187.156 30.4414 187.273 30.8125 187.492 31.0938C187.719 31.375 188.004 31.5781 188.348 31.7031C188.699 31.8281 189.078 31.8906 189.484 31.8906C189.922 31.8906 190.285 31.832 190.574 31.7148C190.863 31.5898 191.082 31.4258 191.23 31.2227C191.387 31.0117 191.465 30.7695 191.465 30.4961ZM203.781 31.1406V25.4922C203.781 25.0859 203.715 24.7383 203.582 24.4492C203.449 24.1523 203.242 23.9219 202.961 23.7578C202.688 23.5938 202.332 23.5117 201.895 23.5117C201.52 23.5117 201.195 23.5781 200.922 23.7109C200.648 23.8359 200.438 24.0195 200.289 24.2617C200.141 24.4961 200.066 24.7734 200.066 25.0938H196.691C196.691 24.5547 196.816 24.043 197.066 23.5586C197.316 23.0742 197.68 22.6484 198.156 22.2812C198.633 21.9062 199.199 21.6133 199.855 21.4023C200.52 21.1914 201.262 21.0859 202.082 21.0859C203.066 21.0859 203.941 21.25 204.707 21.5781C205.473 21.9062 206.074 22.3984 206.512 23.0547C206.957 23.7109 207.18 24.5312 207.18 25.5156V30.9414C207.18 31.6367 207.223 32.207 207.309 32.6523C207.395 33.0898 207.52 33.4727 207.684 33.8008V34H204.273C204.109 33.6562 203.984 33.2266 203.898 32.7109C203.82 32.1875 203.781 31.6641 203.781 31.1406ZM204.227 26.2773L204.25 28.1875H202.363C201.918 28.1875 201.531 28.2383 201.203 28.3398C200.875 28.4414 200.605 28.5859 200.395 28.7734C200.184 28.9531 200.027 29.1641 199.926 29.4062C199.832 29.6484 199.785 29.9141 199.785 30.2031C199.785 30.4922 199.852 30.7539 199.984 30.9883C200.117 31.2148 200.309 31.3945 200.559 31.5273C200.809 31.6523 201.102 31.7148 201.438 31.7148C201.945 31.7148 202.387 31.6133 202.762 31.4102C203.137 31.207 203.426 30.957 203.629 30.6602C203.84 30.3633 203.949 30.082 203.957 29.8164L204.848 31.2461C204.723 31.5664 204.551 31.8984 204.332 32.2422C204.121 32.5859 203.852 32.9102 203.523 33.2148C203.195 33.5117 202.801 33.7578 202.34 33.9531C201.879 34.1406 201.332 34.2344 200.699 34.2344C199.895 34.2344 199.164 34.0742 198.508 33.7539C197.859 33.4258 197.344 32.9766 196.961 32.4062C196.586 31.8281 196.398 31.1719 196.398 30.4375C196.398 29.7734 196.523 29.1836 196.773 28.668C197.023 28.1523 197.391 27.7188 197.875 27.3672C198.367 27.0078 198.98 26.7383 199.715 26.5586C200.449 26.3711 201.301 26.2773 202.27 26.2773H204.227ZM213.906 31.5391L216.719 21.3203H220.246L215.969 34H213.836L213.906 31.5391ZM211.973 21.3203L214.797 31.5508L214.855 34H212.711L208.434 21.3203H211.973ZM225.32 21.3203V34H221.934V21.3203H225.32ZM221.723 18.0156C221.723 17.5234 221.895 17.1172 222.238 16.7969C222.582 16.4766 223.043 16.3164 223.621 16.3164C224.191 16.3164 224.648 16.4766 224.992 16.7969C225.344 17.1172 225.52 17.5234 225.52 18.0156C225.52 18.5078 225.344 18.9141 224.992 19.2344C224.648 19.5547 224.191 19.7148 223.621 19.7148C223.043 19.7148 222.582 19.5547 222.238 19.2344C221.895 18.9141 221.723 18.5078 221.723 18.0156ZM231.414 24.0273V34H228.039V21.3203H231.203L231.414 24.0273ZM230.922 27.2148H230.008C230.008 26.2773 230.129 25.4336 230.371 24.6836C230.613 23.9258 230.953 23.2812 231.391 22.75C231.828 22.2109 232.348 21.8008 232.949 21.5195C233.559 21.2305 234.238 21.0859 234.988 21.0859C235.582 21.0859 236.125 21.1719 236.617 21.3438C237.109 21.5156 237.531 21.7891 237.883 22.1641C238.242 22.5391 238.516 23.0352 238.703 23.6523C238.898 24.2695 238.996 25.0234 238.996 25.9141V34H235.598V25.9023C235.598 25.3398 235.52 24.9023 235.363 24.5898C235.207 24.2773 234.977 24.0586 234.672 23.9336C234.375 23.8008 234.008 23.7344 233.57 23.7344C233.117 23.7344 232.723 23.8242 232.387 24.0039C232.059 24.1836 231.785 24.4336 231.566 24.7539C231.355 25.0664 231.195 25.4336 231.086 25.8555C230.977 26.2773 230.922 26.7305 230.922 27.2148ZM249.59 21.3203H252.648V33.5781C252.648 34.7344 252.391 35.7148 251.875 36.5195C251.367 37.332 250.656 37.9453 249.742 38.3594C248.828 38.7812 247.766 38.9922 246.555 38.9922C246.023 38.9922 245.461 38.9219 244.867 38.7812C244.281 38.6406 243.719 38.4219 243.18 38.125C242.648 37.8281 242.203 37.4531 241.844 37L243.332 35.0078C243.723 35.4609 244.176 35.8125 244.691 36.0625C245.207 36.3203 245.777 36.4492 246.402 36.4492C247.012 36.4492 247.527 36.3359 247.949 36.1094C248.371 35.8906 248.695 35.5664 248.922 35.1367C249.148 34.7148 249.262 34.2031 249.262 33.6016V24.25L249.59 21.3203ZM241.059 27.8125V27.5664C241.059 26.5977 241.176 25.7188 241.41 24.9297C241.652 24.1328 241.992 23.4492 242.43 22.8789C242.875 22.3086 243.414 21.8672 244.047 21.5547C244.68 21.2422 245.395 21.0859 246.191 21.0859C247.035 21.0859 247.742 21.2422 248.312 21.5547C248.883 21.8672 249.352 22.3125 249.719 22.8906C250.086 23.4609 250.371 24.1367 250.574 24.918C250.785 25.6914 250.949 26.5391 251.066 27.4609V28C250.949 28.8828 250.773 29.7031 250.539 30.4609C250.305 31.2188 249.996 31.8828 249.613 32.4531C249.23 33.0156 248.754 33.4531 248.184 33.7656C247.621 34.0781 246.949 34.2344 246.168 34.2344C245.387 34.2344 244.68 34.0742 244.047 33.7539C243.422 33.4336 242.887 32.9844 242.441 32.4062C241.996 31.8281 241.652 31.1484 241.41 30.3672C241.176 29.5859 241.059 28.7344 241.059 27.8125ZM244.434 27.5664V27.8125C244.434 28.3359 244.484 28.8242 244.586 29.2773C244.688 29.7305 244.844 30.1328 245.055 30.4844C245.273 30.8281 245.543 31.0977 245.863 31.293C246.191 31.4805 246.578 31.5742 247.023 31.5742C247.641 31.5742 248.145 31.4453 248.535 31.1875C248.926 30.9219 249.219 30.5586 249.414 30.0977C249.609 29.6367 249.723 29.1055 249.754 28.5039V26.9688C249.738 26.4766 249.672 26.0352 249.555 25.6445C249.438 25.2461 249.273 24.9062 249.062 24.625C248.852 24.3438 248.578 24.125 248.242 23.9688C247.906 23.8125 247.508 23.7344 247.047 23.7344C246.602 23.7344 246.215 23.8359 245.887 24.0391C245.566 24.2344 245.297 24.5039 245.078 24.8477C244.867 25.1914 244.707 25.5977 244.598 26.0664C244.488 26.5273 244.434 27.0273 244.434 27.5664ZM262.129 30.4961C262.129 30.2539 262.059 30.0352 261.918 29.8398C261.777 29.6445 261.516 29.4648 261.133 29.3008C260.758 29.1289 260.215 28.9727 259.504 28.832C258.863 28.6914 258.266 28.5156 257.711 28.3047C257.164 28.0859 256.688 27.8242 256.281 27.5195C255.883 27.2148 255.57 26.8555 255.344 26.4414C255.117 26.0195 255.004 25.5391 255.004 25C255.004 24.4688 255.117 23.9688 255.344 23.5C255.578 23.0312 255.91 22.6172 256.34 22.2578C256.777 21.8906 257.309 21.6055 257.934 21.4023C258.566 21.1914 259.277 21.0859 260.066 21.0859C261.168 21.0859 262.113 21.2617 262.902 21.6133C263.699 21.9648 264.309 22.4492 264.73 23.0664C265.16 23.6758 265.375 24.3711 265.375 25.1523H262C262 24.8242 261.93 24.5312 261.789 24.2734C261.656 24.0078 261.445 23.8008 261.156 23.6523C260.875 23.4961 260.508 23.418 260.055 23.418C259.68 23.418 259.355 23.4844 259.082 23.6172C258.809 23.7422 258.598 23.9141 258.449 24.1328C258.309 24.3438 258.238 24.5781 258.238 24.8359C258.238 25.0312 258.277 25.207 258.355 25.3633C258.441 25.5117 258.578 25.6484 258.766 25.7734C258.953 25.8984 259.195 26.0156 259.492 26.125C259.797 26.2266 260.172 26.3203 260.617 26.4062C261.531 26.5938 262.348 26.8398 263.066 27.1445C263.785 27.4414 264.355 27.8477 264.777 28.3633C265.199 28.8711 265.41 29.5391 265.41 30.3672C265.41 30.9297 265.285 31.4453 265.035 31.9141C264.785 32.3828 264.426 32.793 263.957 33.1445C263.488 33.4883 262.926 33.7578 262.27 33.9531C261.621 34.1406 260.891 34.2344 260.078 34.2344C258.898 34.2344 257.898 34.0234 257.078 33.6016C256.266 33.1797 255.648 32.6445 255.227 31.9961C254.812 31.3398 254.605 30.668 254.605 29.9805H257.805C257.82 30.4414 257.938 30.8125 258.156 31.0938C258.383 31.375 258.668 31.5781 259.012 31.7031C259.363 31.8281 259.742 31.8906 260.148 31.8906C260.586 31.8906 260.949 31.832 261.238 31.7148C261.527 31.5898 261.746 31.4258 261.895 31.2227C262.051 31.0117 262.129 30.7695 262.129 30.4961Z" fill="white"/>
</svg>
